<svg width="399" height="347" viewBox="0 0 399 347" fill="none" xmlns="http://www.w3.org/2000/svg">
<path fill-rule="evenodd" clip-rule="evenodd" d="M352.301 55.997C366.369 47.9187 389.804 40.7771 396.068 77.4999L396.048 77.5195C405.16 130.984 390.838 151.141 382.389 145.716C377.823 142.789 362.428 125.13 351.286 106.223L332.534 180.82C329.081 194.537 314.114 201.835 301.177 196.118L292.397 192.234C292.689 193.444 293.002 194.615 293.333 195.727C296.28 205.659 298.972 215.669 301.373 225.757C306.895 248.86 311.246 272.588 311.656 296.393C311.87 308.745 309.939 318.111 306.778 325.194C313.412 322.521 320.007 319.321 326.173 315.359C339.813 306.579 349.686 294.774 353.979 282.149C358.759 268.002 356.281 252.47 347.618 242.577C345.491 240.158 345.725 236.45 348.164 234.323C350.603 232.196 354.291 232.431 356.418 234.87C367.774 247.846 371.15 267.885 365.042 285.895C359.911 301.018 348.34 314.989 332.476 325.194C318.407 334.248 302.719 339.575 288.923 343.536C278.718 348.121 268.923 346.833 268.923 346.833C268.923 346.833 255.342 344.902 135.983 346.833C125.602 346.99 114.656 345.994 104.646 342.931C103.865 343.165 103.007 343.282 102.129 343.165C96.1968 342.424 90.0698 342.989 83.5916 343.594C81.0159 343.848 78.4402 344.082 75.8646 344.238C74.1474 344.336 72.2742 344.414 70.2839 344.414C62.752 344.414 53.6006 343.282 45.815 338.111C36.3709 331.848 29.9707 318.052 36.1172 306.696C37.4441 304.257 39.1807 302.227 40.7222 300.432C42.5564 298.305 44.1174 296.471 44.3711 294.793C44.6052 293.213 43.454 291.125 41.6393 289.837C39.649 288.432 36.8002 287.593 32.9172 287.281C31.2586 287.144 29.5415 287.105 27.7463 287.066L27.7166 287.065C23.3355 286.968 18.8186 286.868 14.2045 285.427C6.45796 283.007 -1.11296 275.515 0.135856 266.383C0.584648 263.183 3.55057 260.939 6.73114 261.368C9.93122 261.817 12.1752 264.763 11.7459 267.963C11.4142 270.461 14.6143 273.29 17.6973 274.246C20.7412 275.202 24.273 275.28 28.0195 275.358C28.3119 275.367 28.6058 275.376 28.9009 275.385C30.5161 275.432 32.171 275.48 33.8538 275.612C39.8832 276.1 44.6638 277.641 48.4297 280.315C53.8738 284.178 56.8202 290.52 55.9616 296.491C55.221 301.539 52.1053 305.165 49.6092 308.071L49.6005 308.081L49.5519 308.138C48.3018 309.6 47.1327 310.967 46.4199 312.276C43.5516 317.564 47.2199 324.999 52.2932 328.355C57.5617 331.848 64.8204 333.194 75.1621 332.55C77.6207 332.394 80.0793 332.179 82.5379 331.945C82.7693 331.927 83.0052 331.904 83.2433 331.881C83.5071 331.855 83.7737 331.829 84.0404 331.809C79.2598 327.535 75.2987 322.208 72.6059 315.535C66.1668 299.652 67.7668 281.368 71.2596 264.997C71.5283 263.736 71.8002 262.435 72.0786 261.102C73.9839 251.984 76.1969 241.394 79.8061 231.962C53.9908 226.928 32.3903 208.001 25.9706 181.561C24.4096 175.102 23.8633 168.644 24.2145 162.322L9.95073 134.009L0.955388 116.155C-1.952 110.379 2.32128 104.74 8.6629 105.988L28.2926 109.852L48.5858 113.852C56.9763 106.691 67.1814 101.305 78.7329 98.4956C83.5721 97.3248 88.4307 96.6614 93.2113 96.4663L111.182 79.2756L125.954 65.1484C130.715 60.5825 138.227 63.002 139.456 69.4802L143.281 89.5783L149.076 120.077C155.964 127.921 161.076 137.404 163.691 148.155C168.745 168.975 163.281 189.991 150.637 205.932C162.345 209.62 171.594 217.933 180.687 227.611C188.121 235.514 201.136 233.66 206.209 224.06C209.078 218.625 211.941 213.196 214.805 207.767C217.668 202.337 220.532 196.908 223.4 191.473C224.89 188.65 226.159 185.682 227.43 182.711C229.47 177.942 231.513 173.164 234.483 168.956C234.912 168.351 235.381 167.766 235.869 167.18L212.824 156.975C200.063 151.316 195.321 135.609 202.834 123.843L241.527 63.2167C221.956 71.1778 200.629 75.8023 195.419 75.4511C185.389 74.7682 185.877 50.0651 225.019 12.5227C253.957 -15.2243 268.63 9.67388 274.328 24.5621C278.874 23.6059 283.733 24.0352 288.241 26.0255L345.549 51.392C348.125 52.5432 350.388 54.1238 352.301 55.997ZM103.612 193.161C103.685 193.205 103.758 193.249 103.826 193.288L103.807 193.269L103.903 193.324C104.653 193.756 105.424 194.199 106.285 194.517C110.539 196.078 114.519 194.83 117.173 191.083C118.344 189.444 119.124 187.512 119.495 185.386C119.651 184.546 119.729 183.668 119.749 182.771C119.768 182.185 119.534 181.659 119.124 181.268C118.734 180.917 118.227 180.702 117.7 180.702C116.529 180.683 115.709 181.483 115.553 182.576C115.534 182.693 115.534 182.829 115.534 183.083V183.083C115.378 185.19 114.812 186.947 113.817 188.488C112.431 190.615 110.5 191.337 108.08 190.654C106.948 190.342 105.973 189.717 104.821 188.937C104.392 188.644 104.119 188.176 103.904 187.708C103.813 187.517 103.742 187.314 103.671 187.112C103.561 186.795 103.451 186.479 103.26 186.205C103.007 185.815 102.558 185.561 102.129 185.425C101.719 185.307 101.251 185.307 100.841 185.464C100.06 185.737 99.2993 186.712 99.3968 187.59C99.3968 187.688 99.4163 187.805 99.4554 187.903C99.4887 188.007 99.5229 188.107 99.5565 188.206C99.6802 188.57 99.7954 188.909 99.8261 189.308C99.8847 189.834 99.8066 190.381 99.6115 190.888C99.3773 191.493 99.1432 192.098 98.8505 192.664C97.1919 195.825 94.4016 196.664 91.2405 194.986C89.8356 194.244 88.5868 193.191 87.5526 191.883C87.1039 191.298 86.538 190.966 85.9331 190.888C85.4062 190.83 84.8794 190.986 84.4306 191.337C83.455 192.098 83.3574 193.405 84.216 194.498C85.8355 196.566 87.8258 198.147 90.1283 199.161C91.5527 199.786 92.9577 200.098 94.3235 200.098C97.3285 200.098 100.041 198.596 101.914 195.786C102.46 194.966 102.89 194.088 103.299 193.23C103.338 193.171 103.358 193.093 103.397 193.035C103.465 193.074 103.538 193.117 103.612 193.161ZM292.885 153.307C293.704 152.682 294.465 151.98 295.167 151.238L295.148 151.199C295.675 150.653 295.558 149.814 295.031 149.307C294.504 148.838 293.685 148.819 293.099 149.307C293.009 149.384 292.927 149.47 292.842 149.559C292.799 149.604 292.755 149.651 292.709 149.697C290.816 151.492 288.65 152.858 286.094 153.521C282.562 154.438 279.635 153.287 277.704 150.204C276.806 148.78 276.396 147.18 275.987 145.56C275.582 143.942 276.22 142.683 276.861 141.418C277.024 141.097 277.187 140.776 277.333 140.448C283.089 141.872 289.782 138.614 292.397 135.101C293.685 133.384 293.958 131.609 292.767 129.833C291.948 128.623 290.972 127.491 289.86 126.555C286.894 124.077 283.44 122.496 279.772 121.325C277.567 120.603 275.284 120.155 272.943 120.525C270.621 120.896 269.333 122.067 268.923 124.389C268.123 128.857 269.352 132.877 271.947 136.506C272.435 137.186 273.04 137.789 273.663 138.411C273.988 138.736 274.319 139.066 274.64 139.414C274.577 139.552 274.504 139.696 274.427 139.847C274.244 140.209 274.042 140.606 273.918 141.033C273.528 142.321 272.611 143.102 271.479 143.687C270.679 144.116 269.86 144.526 269.001 144.838C264.201 146.555 260.279 144.682 258.542 139.882C257.801 137.814 257.528 135.667 257.684 133.462C257.762 132.409 257.254 131.706 256.396 131.648C255.518 131.589 254.932 132.194 254.854 133.267C254.64 136.272 255.088 139.16 256.298 141.911C258.542 146.965 263.147 149.287 268.513 147.941C269.589 147.669 270.621 147.25 271.662 146.828C272.189 146.615 272.717 146.401 273.255 146.204C273.26 146.225 273.266 146.254 273.274 146.289C273.296 146.385 273.329 146.529 273.372 146.672C273.518 147.095 273.653 147.525 273.789 147.956C274.122 149.02 274.458 150.091 274.972 151.063C277.313 155.57 281.528 157.463 286.484 156.37C288.845 155.843 290.972 154.79 292.885 153.307ZM230.602 250.7C233.222 253.322 235.318 256.442 236.771 259.885C238.278 263.468 239.048 267.273 239.037 271.189C239.037 274.884 238.3 278.733 236.836 282.649C235.622 285.922 233.855 289.316 231.61 292.744C228.054 298.169 223.165 303.827 217.093 309.562C207.022 319.069 197.069 325.625 196.646 325.903L194.077 327.589C192.938 328.332 191.475 328.332 190.336 327.589L187.767 325.903C187.344 325.636 177.381 319.069 167.32 309.562C161.248 303.827 156.359 298.169 152.803 292.744C150.558 289.316 148.802 285.922 147.577 282.649C146.113 278.733 145.376 274.884 145.376 271.189C145.376 267.273 146.146 263.468 147.653 259.885C149.102 256.44 151.198 253.319 153.822 250.7C156.456 248.059 159.524 245.985 162.929 244.543C166.452 243.045 170.182 242.291 174.03 242.291C179.375 242.291 184.59 243.788 189.122 246.617C190.206 247.294 191.236 248.037 192.212 248.847C193.188 248.037 194.218 247.294 195.302 246.617C199.834 243.788 205.048 242.291 210.393 242.291C214.203 242.282 217.977 243.047 221.495 244.543C224.888 245.979 227.98 248.069 230.602 250.7Z" fill="#FFDC5B"/>
</svg>
