<svg width="32" height="32" viewBox="0 0 32 32" fill="none" xmlns="http://www.w3.org/2000/svg">
<g clip-path="url(#clip0_117_367)">
<path d="M6.66667 26.6667V11.3947M25.3333 11.3947V26.6667M4 13.7655L14.2284 4.67358C14.7165 4.23968 15.3469 4 16 4C16.6531 4 17.2835 4.23968 17.7716 4.67358L28 13.7655M4.66667 26.6667H27.3333" stroke="#5C4CBE" stroke-width="2" stroke-linecap="round" stroke-linejoin="round"/>
<path d="M15.9995 16.6666C17.0604 16.6666 18.0778 17.0881 18.8279 17.8382C19.5781 18.5883 19.9995 19.6058 19.9995 20.6666C19.9995 21.0202 19.859 21.3594 19.609 21.6094C19.3589 21.8595 19.0198 22 18.6662 22H13.3328C12.9792 22 12.6401 21.8595 12.39 21.6094C12.14 21.3594 11.9995 21.0202 11.9995 20.6666C11.9995 19.6058 12.4209 18.5883 13.1711 17.8382C13.9212 17.0881 14.9386 16.6666 15.9995 16.6666Z" stroke="#5C4CBE" stroke-width="2" stroke-linecap="round" stroke-linejoin="round"/>
<circle cx="16.0007" cy="12.6641" r="1.66471" fill="#5C4CBE"/>
<circle cx="20.0007" cy="13.9981" r="1.66471" fill="#5C4CBE"/>
<circle cx="12.0007" cy="13.9981" r="1.66471" fill="#5C4CBE"/>
</g>
<defs>
<clipPath id="clip0_117_367">
<rect width="32" height="32" fill="white"/>
</clipPath>
</defs>
</svg>
