<svg width="32" height="32" viewBox="0 0 32 32" fill="none" xmlns="http://www.w3.org/2000/svg">
<g clip-path="url(#clip0_117_423)">
<path d="M4.66666 17.952L6.26666 20.0373L6.61066 22.632C6.70346 23.3324 7.02431 23.9827 7.52365 24.4826C8.02299 24.9824 8.67302 25.3039 9.37333 25.3973L11.976 25.744L14.0467 27.3333C14.6075 27.7622 15.294 27.9945 16 27.9945C16.706 27.9945 17.3924 27.7622 17.9533 27.3333L20.0387 25.7413L22.636 25.3973C23.3364 25.3045 23.9867 24.9837 24.4866 24.4843C24.9864 23.985 25.3079 23.335 25.4013 22.6347L25.748 20.032C25.748 20.032 26.548 18.9787 27.348 17.9493C27.7762 17.3887 28.0081 16.7028 28.0081 15.9973C28.0081 15.2919 27.7762 14.606 27.348 14.0453L25.748 11.96L25.404 9.36533C25.3112 8.66494 24.9903 8.01459 24.491 7.51477C23.9917 7.01495 23.3416 6.69347 22.6413 6.6L20.0387 6.25333L17.9533 4.66667C17.3924 4.23783 16.706 4.00549 16 4.00549C15.294 4.00549 14.6075 4.23783 14.0467 4.66667L11.9613 6.256L9.36666 6.6C8.66627 6.69279 8.01592 7.01365 7.5161 7.51299C7.01628 8.01233 6.6948 8.66236 6.60133 9.36267L6.25466 11.9653C6.25466 11.9653 5.45466 13.0187 4.65466 14.048C4.22819 14.61 3.99834 15.2966 4.0005 16.002C4.00267 16.7075 4.23675 17.3927 4.66666 17.952Z" stroke="#5C4CBE" stroke-width="2" stroke-linecap="round" stroke-linejoin="round"/>
<path d="M16 15.5C17.0609 15.5 18.0783 15.9214 18.8284 16.6716C19.5786 17.4217 20 18.4391 20 19.5C20 19.8536 19.8595 20.1928 19.6095 20.4428C19.3594 20.6929 19.0203 20.8333 18.6667 20.8333H13.3333C12.9797 20.8333 12.6406 20.6929 12.3905 20.4428C12.1405 20.1928 12 19.8536 12 19.5C12 18.4391 12.4214 17.4217 13.1716 16.6716C13.9217 15.9214 14.9391 15.5 16 15.5Z" stroke="#5C4CBE" stroke-width="2" stroke-linecap="round" stroke-linejoin="round"/>
<circle cx="16.0048" cy="11.3028" r="1.66471" fill="#5C4CBE"/>
<circle cx="20.0048" cy="12.6368" r="1.66471" fill="#5C4CBE"/>
<circle cx="12.0048" cy="12.6368" r="1.66471" fill="#5C4CBE"/>
</g>
<defs>
<clipPath id="clip0_117_423">
<rect width="32" height="32" fill="white"/>
</clipPath>
</defs>
</svg>
