<svg width="32" height="32" viewBox="0 0 32 32" fill="none" xmlns="http://www.w3.org/2000/svg">
<g clip-path="url(#clip0_117_395)">
<path d="M28 14.6667V13.105C28 12.7514 27.8595 12.4122 27.6095 12.1622C27.3594 11.9121 27.0203 11.7716 26.6667 11.7716H20.2284V5.33333C20.2284 4.97971 20.0879 4.64057 19.8378 4.39052C19.5878 4.14048 19.2486 4 18.895 4H13.105C12.7514 4 12.4122 4.14048 12.1622 4.39052C11.9121 4.64057 11.7716 4.97971 11.7716 5.33333V11.7716H5.33333C4.97971 11.7716 4.64057 11.9121 4.39052 12.1622C4.14048 12.4122 4 12.7514 4 13.105V18.895C4 19.2486 4.14048 19.5878 4.39052 19.8378C4.64057 20.0879 4.97971 20.2284 5.33333 20.2284H11.7716V26.6667C11.7716 27.0203 11.9121 27.3594 12.1622 27.6095C12.4122 27.8595 12.7514 28 13.105 28H16M23.9996 22.6667C25.0604 22.6667 26.0779 23.0881 26.828 23.8382C27.5781 24.5884 27.9996 25.6058 27.9996 26.6667C27.9996 27.0203 27.8591 27.3594 27.6091 27.6095C27.359 27.8595 27.0199 28 26.6662 28H21.3329C20.9793 28 20.6401 27.8595 20.3901 27.6095C20.1401 27.3594 19.9996 27.0203 19.9996 26.6667C19.9996 25.6058 20.421 24.5884 21.1711 23.8382C21.9213 23.0881 22.9387 22.6667 23.9996 22.6667Z" stroke="#5C4CBE" stroke-width="2" stroke-linecap="round" stroke-linejoin="round"/>
<circle cx="24.0007" cy="18.6662" r="1.66471" fill="#5C4CBE"/>
<circle cx="28.0007" cy="20.0002" r="1.66471" fill="#5C4CBE"/>
<circle cx="20.0007" cy="20.0002" r="1.66471" fill="#5C4CBE"/>
</g>
<defs>
<clipPath id="clip0_117_395">
<rect width="32" height="32" fill="white"/>
</clipPath>
</defs>
</svg>
