<svg width="24" height="24" viewBox="0 0 24 24" fill="none" xmlns="http://www.w3.org/2000/svg">
<path d="M20.8904 3.14431C20.6111 3.01241 20.2978 2.96999 19.9934 3.02285C19.689 3.07571 19.4083 3.22126 19.1898 3.43963C19.1767 3.45275 19.1654 3.46494 19.1542 3.47806L17.536 5.34369C15.877 4.30565 13.9595 3.75519 12.0025 3.75519C10.0454 3.75519 8.12789 4.30565 6.46886 5.34369L4.84605 3.47806C4.8348 3.46494 4.82355 3.45275 4.81043 3.43963C4.59188 3.22126 4.31123 3.07571 4.00685 3.02285C3.70246 2.96999 3.38917 3.01241 3.1098 3.14431C2.84897 3.2724 2.62978 3.47177 2.47762 3.71933C2.32547 3.96689 2.24659 4.2525 2.25011 4.54306V12.7499C2.25011 17.3437 6.00574 21.1528 10.8339 21.6862C10.8865 21.692 10.9397 21.6866 10.9901 21.6704C11.0404 21.6542 11.0868 21.6275 11.1261 21.5921C11.1654 21.5567 11.1968 21.5133 11.2182 21.4649C11.2396 21.4165 11.2504 21.3641 11.2501 21.3112V18.3112L9.99199 17.0521C9.84935 16.9137 9.76572 16.7255 9.75855 16.5269C9.75139 16.3282 9.82125 16.1345 9.95355 15.9862C10.0223 15.9129 10.1051 15.8542 10.197 15.8136C10.289 15.773 10.3881 15.7512 10.4886 15.7496C10.589 15.7481 10.6888 15.7667 10.782 15.8044C10.8751 15.8422 10.9597 15.8982 11.0307 15.9693L12.0001 16.9387L12.9695 15.9684C13.0405 15.8973 13.1251 15.8412 13.2183 15.8035C13.3114 15.7658 13.4112 15.7471 13.5117 15.7487C13.6121 15.7503 13.7113 15.772 13.8032 15.8127C13.8951 15.8533 13.9779 15.912 14.0467 15.9853C14.179 16.1336 14.2488 16.3273 14.2417 16.5259C14.2345 16.7246 14.1509 16.9128 14.0082 17.0512L12.7501 18.3103V21.3103C12.7498 21.3632 12.7607 21.4156 12.782 21.464C12.8034 21.5124 12.8348 21.5557 12.8741 21.5911C12.9134 21.6266 12.9598 21.6533 13.0102 21.6695C13.0605 21.6857 13.1138 21.6911 13.1664 21.6853C17.9945 21.1518 21.7501 17.3437 21.7501 12.7499V4.54306C21.7536 4.2525 21.6748 3.96689 21.5226 3.71933C21.3704 3.47177 21.1513 3.2724 20.8904 3.14431ZM7.87511 14.2499C7.65261 14.2499 7.4351 14.184 7.2501 14.0603C7.06509 13.9367 6.9209 13.761 6.83575 13.5555C6.7506 13.3499 6.72832 13.1237 6.77173 12.9055C6.81514 12.6872 6.92228 12.4868 7.07962 12.3294C7.23695 12.1721 7.43741 12.065 7.65564 12.0216C7.87386 11.9781 8.10006 12.0004 8.30563 12.0856C8.5112 12.1707 8.6869 12.3149 8.81052 12.4999C8.93413 12.6849 9.00011 12.9024 9.00011 13.1249C9.00011 13.4233 8.88159 13.7095 8.67061 13.9204C8.45963 14.1314 8.17348 14.2499 7.87511 14.2499ZM9.75011 8.24994C9.75011 8.44885 9.67109 8.63962 9.53044 8.78027C9.38979 8.92092 9.19902 8.99994 9.00011 8.99994C8.8012 8.99994 8.61044 8.92092 8.46978 8.78027C8.32913 8.63962 8.25011 8.44885 8.25011 8.24994V6.46869C8.25011 6.26978 8.32913 6.07901 8.46978 5.93836C8.61044 5.79771 8.8012 5.71869 9.00011 5.71869C9.19902 5.71869 9.38979 5.79771 9.53044 5.93836C9.67109 6.07901 9.75011 6.26978 9.75011 6.46869V8.24994ZM12.7501 8.24994C12.7501 8.44885 12.6711 8.63962 12.5304 8.78027C12.3898 8.92092 12.199 8.99994 12.0001 8.99994C11.8012 8.99994 11.6104 8.92092 11.4698 8.78027C11.3291 8.63962 11.2501 8.44885 11.2501 8.24994V5.99994C11.2501 5.80103 11.3291 5.61026 11.4698 5.46961C11.6104 5.32896 11.8012 5.24994 12.0001 5.24994C12.199 5.24994 12.3898 5.32896 12.5304 5.46961C12.6711 5.61026 12.7501 5.80103 12.7501 5.99994V8.24994ZM14.2501 8.24994V6.46869C14.2501 6.26978 14.3291 6.07901 14.4698 5.93836C14.6104 5.79771 14.8012 5.71869 15.0001 5.71869C15.199 5.71869 15.3898 5.79771 15.5304 5.93836C15.6711 6.07901 15.7501 6.26978 15.7501 6.46869V8.24994C15.7501 8.44885 15.6711 8.63962 15.5304 8.78027C15.3898 8.92092 15.199 8.99994 15.0001 8.99994C14.8012 8.99994 14.6104 8.92092 14.4698 8.78027C14.3291 8.63962 14.2501 8.44885 14.2501 8.24994ZM16.1251 14.2499C15.9026 14.2499 15.6851 14.184 15.5001 14.0603C15.3151 13.9367 15.1709 13.761 15.0857 13.5555C15.0006 13.3499 14.9783 13.1237 15.0217 12.9055C15.0651 12.6872 15.1723 12.4868 15.3296 12.3294C15.487 12.1721 15.6874 12.065 15.9056 12.0216C16.1239 11.9781 16.3501 12.0004 16.5556 12.0856C16.7612 12.1707 16.9369 12.3149 17.0605 12.4999C17.1841 12.6849 17.2501 12.9024 17.2501 13.1249C17.2501 13.4233 17.1316 13.7095 16.9206 13.9204C16.7096 14.1314 16.4235 14.2499 16.1251 14.2499Z" fill="#5C4CBE"/>
</svg>
