<svg width="539" height="546" viewBox="0 0 539 546" fill="none" xmlns="http://www.w3.org/2000/svg">
<g clip-path="url(#clip0_2_23)">
<path d="M282.098 8.06361L298.389 43.7606C302.423 52.5996 314.06 54.6465 320.856 47.7304L348.38 19.7559C356.696 11.3201 371.125 16.5304 372.056 28.3467L375.128 67.4553C375.904 77.1316 386.113 83.0242 394.894 78.8374L430.362 61.9348C441.068 56.8175 452.828 66.6799 449.663 78.124L439.175 115.93C436.599 125.296 444.171 134.321 453.852 133.391L492.951 129.638C504.773 128.491 512.438 141.765 505.549 151.441L482.742 183.385C477.094 191.263 481.128 202.366 490.53 204.785L528.574 214.616C540.055 217.594 542.724 232.697 532.949 239.396L500.553 261.633C492.547 267.123 492.547 278.939 500.553 284.429L532.949 306.666C542.724 313.365 540.086 328.468 528.574 331.446L490.53 341.277C481.128 343.696 477.094 354.799 482.742 362.677L505.549 394.621C512.438 404.297 504.773 417.54 492.951 416.424L453.852 412.671C444.171 411.741 436.599 420.797 439.175 430.132L449.663 467.938C452.828 479.351 441.068 489.213 430.362 484.127L394.894 467.225C386.113 463.069 375.904 468.961 375.128 478.607L372.056 517.715C371.125 529.532 356.696 534.773 348.38 526.306L320.856 498.332C314.029 491.415 302.423 493.462 298.389 502.27L282.098 537.967C277.165 548.76 261.835 548.76 256.902 537.967L240.611 502.27C236.577 493.431 224.94 491.384 218.145 498.332L190.62 526.306C182.304 534.742 167.875 529.532 166.944 517.715L163.841 478.607C163.065 468.93 152.856 463.038 144.106 467.225L108.638 484.127C97.9323 489.245 86.1718 479.382 89.3369 467.938L99.8252 430.132C102.401 420.766 94.8293 411.741 85.1478 412.671L46.0493 416.424C34.2267 417.571 26.5621 404.297 33.4509 394.621L56.2583 362.677C61.9059 354.799 57.8719 343.696 48.4697 341.277L10.4263 331.446C-1.05501 328.468 -3.72363 313.396 6.05098 306.666L38.4468 284.429C46.4527 278.939 46.4527 267.123 38.4468 261.633L6.05098 239.427C-3.75466 232.728 -1.08604 217.625 10.4263 214.647L48.4697 204.816C57.8719 202.397 61.9059 191.294 56.2583 183.416L33.4509 151.472C26.5621 141.796 34.2267 128.553 46.0493 129.669L85.1478 133.422C94.8293 134.352 102.401 125.296 99.8252 115.961L89.3369 78.1551C86.1718 66.7419 97.9323 56.8795 108.638 61.9658L144.106 78.8374C152.887 82.9932 163.096 77.1006 163.841 67.4553L166.944 28.3467C167.875 16.5304 182.304 11.2891 190.62 19.7559L218.145 47.7304C224.971 54.6465 236.577 52.5996 240.611 43.7916L256.902 8.09463C261.835 -2.6672 277.165 -2.6672 282.098 8.09463V8.06361Z" fill="#FFDC5B"/>
</g>
<defs>
<clipPath id="clip0_2_23">
<rect width="539" height="546" fill="white"/>
</clipPath>
</defs>
</svg>
