<svg width="1377" height="996" viewBox="0 0 1377 996" fill="none" xmlns="http://www.w3.org/2000/svg">
<path fill-rule="evenodd" clip-rule="evenodd" d="M582.293 165.016C579.008 157.713 575.33 150.574 571.277 143.631C495.52 13.7543 313.62 -1.50422 164.983 109.553C16.3285 220.626 -42.7572 415.931 33 545.808C69.9879 609.227 132.293 645.315 203.67 652.716C192.442 728.273 203.245 802.654 239.449 864.717C331.175 1021.97 551.222 1040.61 730.914 906.343C834.833 828.695 902.516 716.919 923.372 606.042C1009.03 634.843 1117.28 615.37 1212 544.583C1360.64 433.526 1419.73 238.204 1343.98 108.327C1268.23 -21.5494 1086.33 -36.7915 937.69 74.2654C907.338 96.9408 880.713 123.145 858.206 151.571C856.327 134.907 851.341 119.028 843.038 104.782C806.198 41.6084 717.675 34.2242 645.318 88.2823C617.385 109.144 595.957 136.116 582.277 165L582.293 165.016Z" fill="#FFDC5B"/>
</svg>
