<svg width="779" height="373" viewBox="0 0 779 373" fill="none" xmlns="http://www.w3.org/2000/svg">
<path fill-rule="evenodd" clip-rule="evenodd" d="M378.398 60.1451C393.509 51.4685 418.68 43.7978 425.408 83.241L425.387 83.262C435.174 140.687 419.791 162.337 410.716 156.511C405.812 153.367 389.276 134.4 377.309 114.091L357.168 194.214C353.458 208.948 337.383 216.786 323.488 210.646L314.057 206.475C314.371 207.774 314.707 209.032 315.063 210.226C318.228 220.894 321.12 231.646 323.698 242.481C329.629 267.295 334.303 292.781 334.743 318.349C334.973 331.616 332.898 341.676 329.503 349.284C336.629 346.412 343.713 342.975 350.336 338.721C364.985 329.29 375.59 316.61 380.201 303.05C385.336 287.855 382.674 271.173 373.369 260.547C371.084 257.948 371.336 253.966 373.955 251.682C376.575 249.397 380.536 249.649 382.821 252.268C395.018 266.206 398.644 287.73 392.084 307.074C386.572 323.317 374.144 338.323 357.105 349.284C341.994 359.008 325.144 364.73 310.326 368.984C299.365 373.91 288.844 372.526 288.844 372.526C288.844 372.526 274.257 370.451 146.057 372.526C134.907 372.694 123.149 371.625 112.398 368.335C111.559 368.586 110.637 368.712 109.694 368.586C103.323 367.79 96.742 368.398 89.7839 369.047C87.0174 369.32 84.2509 369.571 81.4845 369.739C79.6402 369.844 77.6282 369.927 75.4904 369.927C67.4006 369.927 57.5712 368.712 49.2089 363.158C39.0652 356.43 32.1909 341.613 38.7927 329.415C40.2179 326.796 42.0832 324.616 43.7389 322.688C45.7089 320.403 47.3856 318.433 47.658 316.631C47.9095 314.933 46.673 312.691 44.7239 311.308C42.5862 309.799 39.5263 308.897 35.3556 308.562C33.5742 308.415 31.7298 308.373 29.8017 308.331L29.7695 308.331C25.064 308.226 20.2125 308.118 15.2567 306.571C6.93636 303.972 -1.1954 295.924 0.14592 286.116C0.627957 282.679 3.8136 280.269 7.22977 280.73C10.6669 281.212 13.0771 284.376 12.616 287.813C12.2597 290.496 15.6969 293.535 19.0082 294.562C22.2777 295.589 26.0711 295.673 30.0951 295.757C30.4094 295.766 30.7252 295.776 31.0425 295.785C32.7771 295.835 34.5544 295.887 36.3616 296.029C42.8377 296.553 47.9724 298.209 52.0173 301.08C57.8646 305.23 61.0293 312.041 60.1072 318.454C59.3117 323.876 55.9652 327.772 53.2842 330.893L53.2748 330.903L53.2225 330.965C51.8799 332.534 50.6242 334.003 49.8586 335.409C46.7778 341.089 50.7179 349.074 56.167 352.679C61.8257 356.43 69.6222 357.877 80.73 357.185C83.3707 357.017 86.0114 356.787 88.6522 356.535C88.9007 356.515 89.154 356.491 89.4098 356.466C89.6931 356.438 89.9795 356.411 90.2659 356.389C85.1312 351.799 80.8767 346.077 77.9845 338.909C71.0683 321.85 72.7868 302.212 76.5383 284.628C76.827 283.273 77.119 281.875 77.4181 280.444C79.4646 270.651 81.8415 259.276 85.718 249.146C57.9904 243.738 34.7897 223.409 27.8945 195.011C26.2178 188.074 25.631 181.137 26.0083 174.346L10.6879 143.936L1.02616 124.759C-2.0966 118.555 2.49323 112.499 9.30463 113.84L30.3885 117.99L52.185 122.286C61.197 114.594 72.1581 108.81 84.5653 105.792C89.7629 104.534 94.9815 103.822 100.116 103.612L119.419 85.1482L135.284 69.9745C140.398 65.0703 148.467 67.6691 149.787 74.6272L153.895 96.2141L160.119 128.972C167.518 137.397 173.009 147.583 175.817 159.13C181.245 181.493 175.377 204.065 161.796 221.188C174.371 225.149 184.305 234.077 194.072 244.472C202.057 252.96 216.036 250.969 221.485 240.658C224.566 234.821 227.641 228.989 230.717 223.158C233.793 217.326 236.868 211.494 239.949 205.658C241.55 202.625 242.913 199.438 244.278 196.246C246.469 191.124 248.664 185.992 251.853 181.472C252.314 180.822 252.817 180.193 253.341 179.565L228.59 168.604C214.883 162.526 209.79 145.654 217.859 133.017L259.419 67.8997C238.398 76.4506 215.491 81.4177 209.895 81.0404C199.123 80.3069 199.646 53.7739 241.689 13.4504C272.769 -16.3521 288.53 10.3905 294.65 26.3816C299.533 25.3546 304.752 25.8157 309.593 27.9534L371.147 55.199C373.913 56.4356 376.345 58.1332 378.398 60.1451ZM111.287 207.47C111.366 207.518 111.444 207.565 111.517 207.607L111.497 207.586L111.6 207.645C112.406 208.109 113.234 208.585 114.158 208.927C118.727 210.604 123.003 209.262 125.853 205.238C127.11 203.478 127.949 201.403 128.347 199.119C128.515 198.217 128.598 197.274 128.619 196.31C128.64 195.681 128.389 195.116 127.949 194.696C127.53 194.319 126.985 194.089 126.419 194.089C125.161 194.068 124.281 194.927 124.113 196.101C124.092 196.226 124.092 196.373 124.092 196.645V196.646C123.925 198.909 123.317 200.795 122.248 202.451C120.76 204.735 118.685 205.511 116.086 204.777C114.871 204.442 113.823 203.771 112.586 202.933C112.125 202.619 111.832 202.116 111.601 201.613C111.503 201.408 111.427 201.19 111.351 200.973C111.233 200.633 111.114 200.293 110.91 199.999C110.637 199.58 110.155 199.307 109.694 199.161C109.254 199.035 108.751 199.035 108.311 199.202C107.473 199.496 106.655 200.544 106.76 201.487C106.76 201.592 106.781 201.717 106.823 201.822C106.859 201.934 106.895 202.042 106.931 202.148C107.064 202.539 107.188 202.903 107.221 203.331C107.284 203.897 107.2 204.484 106.991 205.029C106.739 205.678 106.488 206.328 106.173 206.936C104.392 210.331 101.395 211.232 97.9995 209.43C96.4905 208.634 95.1492 207.502 94.0384 206.098C93.5564 205.469 92.9486 205.113 92.2989 205.029C91.733 204.966 91.1671 205.134 90.6851 205.511C89.6372 206.328 89.5324 207.732 90.4546 208.906C92.1941 211.128 94.3318 212.825 96.8049 213.915C98.3348 214.586 99.8438 214.921 101.311 214.921C104.538 214.921 107.452 213.307 109.464 210.289C110.05 209.409 110.511 208.466 110.952 207.544C110.973 207.512 110.988 207.476 111.004 207.439C111.02 207.402 111.035 207.366 111.056 207.334C111.13 207.376 111.208 207.423 111.287 207.47ZM314.581 164.663C315.461 163.993 316.279 163.238 317.033 162.442L317.012 162.4C317.578 161.813 317.452 160.912 316.886 160.367C316.32 159.864 315.44 159.843 314.811 160.367C314.715 160.45 314.627 160.542 314.536 160.638C314.489 160.687 314.442 160.736 314.392 160.786C312.359 162.714 310.033 164.181 307.288 164.894C303.494 165.879 300.35 164.642 298.275 161.331C297.311 159.801 296.871 158.083 296.431 156.343C295.997 154.605 296.682 153.253 297.37 151.894C297.545 151.549 297.72 151.204 297.877 150.852C304.06 152.382 311.249 148.882 314.057 145.109C315.44 143.265 315.734 141.358 314.455 139.451C313.575 138.151 312.527 136.936 311.332 135.93C308.147 133.268 304.437 131.57 300.497 130.313C298.129 129.538 295.677 129.056 293.162 129.454C290.668 129.852 289.284 131.109 288.844 133.603C287.985 138.403 289.305 142.72 292.093 146.618C292.616 147.348 293.266 147.997 293.935 148.665C294.285 149.013 294.64 149.367 294.985 149.741C294.917 149.889 294.838 150.045 294.756 150.207C294.559 150.595 294.343 151.022 294.21 151.481C293.79 152.864 292.805 153.702 291.59 154.331C290.731 154.792 289.85 155.232 288.928 155.568C283.772 157.412 279.56 155.4 277.695 150.244C276.898 148.023 276.605 145.717 276.772 143.349C276.856 142.217 276.311 141.463 275.389 141.4C274.446 141.337 273.817 141.987 273.734 143.139C273.503 146.367 273.985 149.469 275.284 152.424C277.695 157.852 282.641 160.346 288.404 158.9C289.56 158.608 290.669 158.158 291.787 157.705C292.352 157.476 292.92 157.246 293.497 157.035C293.503 157.057 293.51 157.088 293.518 157.125C293.542 157.229 293.577 157.383 293.623 157.538C293.78 157.991 293.925 158.453 294.07 158.916C294.429 160.059 294.79 161.209 295.341 162.253C297.856 167.095 302.383 169.127 307.707 167.954C310.243 167.388 312.527 166.256 314.581 164.663ZM247.682 269.273C250.497 272.089 252.748 275.44 254.308 279.139C255.927 282.987 256.754 287.074 256.742 291.28C256.742 295.248 255.95 299.383 254.378 303.589C253.074 307.104 251.176 310.75 248.765 314.432C244.946 320.258 239.694 326.335 233.173 332.495C222.355 342.707 211.665 349.749 211.211 350.047L208.451 351.858C207.229 352.656 205.657 352.656 204.434 351.858L201.674 350.047C201.22 349.761 190.518 342.707 179.712 332.495C173.191 326.335 167.939 320.258 164.12 314.432C161.709 310.75 159.823 307.104 158.507 303.589C156.935 299.383 156.143 295.248 156.143 291.28C156.143 287.074 156.97 282.987 158.588 279.139C160.145 275.438 162.396 272.086 165.214 269.273C168.044 266.437 171.339 264.209 174.996 262.66C178.78 261.051 182.786 260.241 186.92 260.241C192.661 260.241 198.262 261.849 203.13 264.888C204.294 265.615 205.4 266.413 206.448 267.283C207.496 266.413 208.603 265.615 209.767 264.888C214.635 261.849 220.236 260.241 225.977 260.241C230.069 260.231 234.122 261.053 237.901 262.66C241.545 264.203 244.866 266.448 247.682 269.273Z" fill="#FFDC5B"/>
<path d="M477.972 114.663C472.711 114.663 468.397 110.349 468.397 105.088V38.1724C468.397 32.9118 472.711 28.598 477.972 28.598C483.232 28.598 487.546 32.9118 487.546 38.1724V63.2133L516.795 32.2805C518.794 30.3866 520.899 28.598 523.95 28.598C528.579 28.598 532.577 32.3857 532.577 37.1203C532.577 39.0141 532.051 41.1184 530.473 42.4862L510.167 64.055L535.208 100.354C536.365 101.932 537.522 103.826 537.522 106.246C537.522 110.98 533.524 114.663 528.685 114.663C525.318 114.663 522.582 112.769 520.688 110.244L497.436 76.2598L487.546 87.202V105.088C487.546 110.349 483.232 114.663 477.972 114.663ZM598.879 51.745C603.93 51.745 608.033 55.8483 608.033 60.8986V105.614C608.033 110.665 603.93 114.663 598.669 114.663C593.829 114.663 589.726 111.191 589.726 106.982V103.721C585.517 111.401 578.047 115.294 568.999 115.294C553.427 115.294 545.01 104.036 545.01 85.9394V60.8986C545.01 55.8483 549.113 51.745 554.163 51.745C559.214 51.745 563.317 55.8483 563.317 60.8986V84.5716C563.317 93.3044 567.841 98.7755 576.048 98.7755C584.36 98.7755 589.726 93.3044 589.726 84.5716V60.8986C589.726 55.8483 593.829 51.745 598.879 51.745ZM635.554 114.873C630.294 114.873 626.296 110.665 626.296 105.509V37.7516C626.296 32.5961 630.399 28.598 635.449 28.598C640.605 28.598 644.603 32.5961 644.603 37.7516V63.3185C648.601 55.4275 656.387 50.9033 665.856 50.9033C682.059 50.9033 692.265 63.5289 692.265 83.0987C692.265 102.774 681.743 115.294 665.856 115.294C656.387 115.294 648.601 110.98 644.603 103.089V106.877C644.603 111.296 640.605 114.873 635.554 114.873ZM659.333 99.6172C668.486 99.6172 673.957 93.4096 673.957 83.0987C673.957 72.7877 668.486 66.5801 659.333 66.5801C650.179 66.5801 644.603 72.7877 644.603 83.0987C644.603 93.4096 650.179 99.6172 659.333 99.6172ZM759.679 51.745C764.73 51.745 768.833 55.8483 768.833 60.8986V105.614C768.833 110.665 764.73 114.663 759.469 114.663C754.629 114.663 750.526 111.191 750.526 106.982V103.721C746.317 111.401 738.847 115.294 729.799 115.294C714.227 115.294 705.81 104.036 705.81 85.9394V60.8986C705.81 55.8483 709.913 51.745 714.964 51.745C720.014 51.745 724.117 55.8483 724.117 60.8986V84.5716C724.117 93.3044 728.641 98.7755 736.848 98.7755C745.16 98.7755 750.526 93.3044 750.526 84.5716V60.8986C750.526 55.8483 754.629 51.745 759.679 51.745ZM503.538 229.399C479.55 229.399 463.663 212.67 463.663 185.63C463.663 158.59 479.445 141.862 503.854 141.862C522.793 141.862 535.313 153.645 535.313 163.641C535.313 168.796 531.841 172.689 526.58 172.689C517.742 172.689 518.794 159.117 503.959 159.117C491.018 159.117 483.127 169.217 483.127 185.63C483.127 202.044 490.492 212.144 503.433 212.144C519.005 212.144 518.163 197.73 527.212 197.73C532.367 197.73 536.26 201.623 536.26 206.673C536.26 215.827 523.845 229.399 503.538 229.399ZM603.17 228.873C598.33 228.873 594.227 225.296 594.227 220.877V217.3C590.229 224.98 582.443 229.399 573.079 229.399C557.192 229.399 546.67 216.774 546.67 197.099C546.67 177.634 556.771 165.009 573.079 165.009C582.548 165.009 590.229 169.427 594.227 177.213V173.531C594.227 169.112 598.435 165.745 603.17 165.745C608.536 165.745 612.534 169.743 612.534 174.793V219.509C612.534 224.665 608.536 228.873 603.17 228.873ZM579.602 213.617C588.23 213.617 594.227 207.515 594.227 197.204C594.227 186.788 588.23 180.685 579.602 180.685C570.449 180.685 564.977 186.788 564.977 197.204C564.977 207.515 570.449 213.617 579.602 213.617ZM658.172 227.716C644.389 227.716 635.025 218.247 635.025 203.096V182.053H631.553C626.503 182.053 623.241 178.897 623.241 174.373C623.241 169.743 626.398 166.692 630.922 166.692H635.025V159.537C635.025 154.066 638.602 150.384 644.179 150.384C649.65 150.384 653.332 154.066 653.332 159.537V166.692H663.538C668.693 166.692 671.955 169.743 671.955 174.373C671.955 179.002 668.693 182.053 663.538 182.053H653.332V202.57C653.332 208.567 655.963 212.249 662.17 212.249H663.538C668.588 212.249 671.85 215.301 671.85 219.93C671.85 224.665 668.588 227.716 663.538 227.716H658.172ZM478.498 341.716C471.974 341.716 468.397 338.139 468.397 331.615V267.645C468.397 261.122 471.974 257.545 478.498 257.545H512.061C525.528 257.545 533.735 265.646 533.735 278.272C533.735 288.793 527.527 296.369 517.427 298.789C528.158 300.893 534.787 308.574 534.787 319.516C534.787 332.983 525.949 341.716 511.64 341.716H478.498ZM505.117 327.196C511.535 327.196 515.533 323.093 515.533 316.57C515.533 310.152 511.64 306.154 505.117 306.154H487.546V327.196H505.117ZM505.432 291.634C511.324 291.634 515.112 287.952 515.112 281.849C515.112 275.852 511.43 272.064 505.432 272.064H487.546V291.634H505.432ZM603.273 342.873C598.433 342.873 594.33 339.296 594.33 334.877V331.3C590.331 338.98 582.546 343.399 573.182 343.399C557.294 343.399 546.773 330.774 546.773 311.099C546.773 291.634 556.874 279.009 573.182 279.009C582.651 279.009 590.331 283.427 594.33 291.213V287.531C594.33 283.112 598.538 279.745 603.273 279.745C608.639 279.745 612.637 283.743 612.637 288.793V333.509C612.637 338.665 608.639 342.873 603.273 342.873ZM579.705 327.617C588.332 327.617 594.33 321.515 594.33 311.204C594.33 300.788 588.332 294.685 579.705 294.685C570.551 294.685 565.08 300.788 565.08 311.204C565.08 321.515 570.551 327.617 579.705 327.617ZM640.178 342.663C635.023 342.663 630.919 338.665 630.919 333.509V265.752C630.919 260.596 635.023 256.598 640.073 256.598C645.228 256.598 649.226 260.596 649.226 265.752V333.509C649.226 338.665 645.228 342.663 640.178 342.663ZM676.651 342.663C671.601 342.663 667.497 338.665 667.497 333.509V288.793C667.497 283.743 671.601 279.745 676.651 279.745C681.807 279.745 685.805 283.743 685.805 288.793V333.509C685.805 338.665 681.807 342.663 676.651 342.663ZM676.651 272.485C671.601 272.485 667.497 268.382 667.497 263.332C667.497 258.176 671.601 254.178 676.651 254.178C681.807 254.178 685.805 258.176 685.805 263.332C685.805 268.382 681.807 272.485 676.651 272.485Z" fill="#FFDC5B"/>
</svg>
