<svg width="499" height="377" viewBox="0 0 499 377" fill="none" xmlns="http://www.w3.org/2000/svg">
<path fill-rule="evenodd" clip-rule="evenodd" d="M343.17 33.7966C351.661 28.921 365.805 24.6107 369.585 46.7746L369.573 46.7864C375.073 79.0546 366.429 91.22 361.33 87.9461C358.574 86.1796 349.282 75.5216 342.557 64.11L331.24 109.132C329.155 117.412 320.123 121.816 312.315 118.365L307.015 116.022C307.192 116.752 307.38 117.459 307.58 118.13C309.359 124.124 310.984 130.166 312.432 136.254C315.765 150.198 318.391 164.519 318.639 178.886C318.768 186.341 317.602 191.994 315.695 196.269C319.699 194.655 323.679 192.724 327.401 190.333C335.633 185.034 341.592 177.909 344.183 170.289C347.068 161.751 345.572 152.377 340.343 146.406C339.06 144.946 339.201 142.708 340.673 141.424C342.145 140.141 344.371 140.282 345.655 141.754C352.509 149.586 354.546 161.68 350.86 172.55C347.763 181.677 340.779 190.109 331.205 196.269C322.714 201.733 313.245 204.948 304.919 207.339C298.76 210.106 292.848 209.329 292.848 209.329C292.848 209.329 284.651 208.163 212.613 209.329C206.348 209.423 199.741 208.823 193.699 206.974C193.228 207.115 192.71 207.186 192.18 207.115C188.6 206.667 184.902 207.009 180.992 207.374C179.438 207.527 177.883 207.669 176.329 207.763C175.292 207.822 174.162 207.869 172.96 207.869C168.415 207.869 162.891 207.186 158.192 204.065C152.492 200.284 148.63 191.958 152.339 185.104C153.14 183.632 154.188 182.407 155.119 181.324C156.226 180.04 157.168 178.933 157.321 177.92C157.462 176.967 156.767 175.706 155.672 174.929C154.471 174.081 152.752 173.575 150.408 173.386C149.407 173.304 148.371 173.28 147.287 173.257L147.269 173.256C144.625 173.198 141.899 173.137 139.114 172.268C134.439 170.807 129.869 166.285 130.623 160.774C130.894 158.842 132.684 157.488 134.604 157.747C136.535 158.018 137.889 159.796 137.63 161.727C137.43 163.235 139.361 164.942 141.222 165.52C143.059 166.097 145.191 166.144 147.452 166.191C147.629 166.196 147.806 166.201 147.984 166.207C148.959 166.235 149.958 166.264 150.973 166.344C154.612 166.638 157.498 167.569 159.77 169.182C163.056 171.514 164.834 175.341 164.316 178.945C163.869 181.992 161.989 184.181 160.482 185.934L160.477 185.94L160.448 185.975C159.693 186.857 158.988 187.682 158.557 188.472C156.826 191.664 159.04 196.151 162.102 198.176C165.282 200.284 169.663 201.097 175.905 200.708C177.388 200.614 178.872 200.485 180.356 200.343C180.496 200.332 180.638 200.318 180.782 200.304C180.941 200.289 181.102 200.273 181.263 200.261C178.378 197.682 175.987 194.467 174.362 190.439C170.476 180.853 171.441 169.818 173.549 159.937C173.711 159.176 173.876 158.391 174.044 157.586C175.194 152.083 176.529 145.692 178.707 139.999C163.127 136.961 150.09 125.537 146.215 109.58C145.273 105.682 144.944 101.784 145.156 97.9681L136.547 80.88L131.118 70.1043C129.363 66.6184 131.942 63.2149 135.769 63.9686L147.617 66.3004L159.865 68.7147C164.929 64.3926 171.088 61.1422 178.06 59.4464C180.98 58.7398 183.913 58.3393 186.798 58.2216L197.644 47.8463L206.559 39.3199C209.433 36.5641 213.967 38.0245 214.709 41.9343L217.017 54.0644L220.515 72.4715C224.672 77.2057 227.758 82.9292 229.336 89.4182C232.386 101.984 229.088 114.668 221.457 124.289C228.523 126.515 234.105 131.532 239.593 137.373C244.08 142.143 251.935 141.024 254.997 135.23C256.726 131.955 258.452 128.682 260.178 125.41C261.908 122.128 263.639 118.847 265.373 115.563C266.272 113.858 267.038 112.067 267.805 110.274C269.036 107.396 270.269 104.512 272.062 101.972C272.321 101.607 272.603 101.254 272.898 100.901L258.99 94.7413C251.288 91.326 248.426 81.8457 252.96 74.7444L276.313 38.154C264.501 42.9589 251.629 45.75 248.485 45.538C242.431 45.1258 242.726 30.2165 266.35 7.55801C283.815 -9.18852 292.671 5.83861 296.11 14.8243C298.854 14.2472 301.786 14.5063 304.507 15.7075L339.095 31.0173C340.65 31.7121 342.016 32.666 343.17 33.7966ZM193.075 116.581C193.119 116.608 193.163 116.634 193.205 116.658L193.193 116.646L193.251 116.68C193.704 116.94 194.169 117.208 194.689 117.4C197.256 118.342 199.658 117.588 201.26 115.327C201.967 114.338 202.438 113.172 202.661 111.888C202.756 111.382 202.803 110.852 202.814 110.31C202.826 109.957 202.685 109.639 202.438 109.403C202.202 109.191 201.896 109.062 201.578 109.062C200.871 109.05 200.377 109.533 200.282 110.192C200.271 110.263 200.271 110.345 200.271 110.498V110.499C200.176 111.77 199.835 112.83 199.234 113.761C198.398 115.044 197.232 115.48 195.772 115.068C195.089 114.88 194.5 114.503 193.805 114.032C193.546 113.855 193.381 113.572 193.252 113.29C193.197 113.175 193.154 113.052 193.111 112.93C193.045 112.739 192.978 112.548 192.863 112.383C192.71 112.147 192.439 111.994 192.18 111.912C191.933 111.841 191.65 111.841 191.403 111.935C190.932 112.1 190.472 112.689 190.531 113.219C190.531 113.278 190.543 113.349 190.567 113.407C190.587 113.47 190.607 113.531 190.628 113.591C190.702 113.81 190.772 114.014 190.79 114.255C190.826 114.573 190.779 114.903 190.661 115.209C190.52 115.574 190.378 115.939 190.202 116.281C189.201 118.189 187.516 118.695 185.609 117.682C184.761 117.235 184.007 116.599 183.383 115.81C183.112 115.457 182.77 115.256 182.405 115.209C182.087 115.174 181.769 115.268 181.499 115.48C180.91 115.939 180.851 116.728 181.369 117.388C182.346 118.636 183.548 119.59 184.937 120.203C185.797 120.579 186.645 120.768 187.469 120.768C189.283 120.768 190.92 119.861 192.051 118.165C192.38 117.671 192.639 117.141 192.887 116.622C192.898 116.605 192.907 116.584 192.916 116.564C192.925 116.543 192.934 116.522 192.946 116.505C192.987 116.528 193.031 116.555 193.075 116.581ZM307.31 92.5272C307.804 92.1504 308.263 91.7264 308.687 91.2789L308.676 91.2554C308.994 90.9256 308.923 90.4192 308.605 90.113C308.287 89.8304 307.792 89.8186 307.439 90.113C307.385 90.1597 307.335 90.2116 307.284 90.2652C307.258 90.2927 307.231 90.3206 307.204 90.3485C306.061 91.432 304.754 92.2564 303.211 92.6568C301.08 93.2103 299.313 92.5155 298.147 90.6547C297.606 89.795 297.358 88.8293 297.111 87.8519C296.867 86.8751 297.252 86.1155 297.639 85.3521C297.737 85.1583 297.835 84.9643 297.923 84.7664C301.398 85.6261 305.437 83.6594 307.015 81.5395C307.792 80.5032 307.957 79.4315 307.239 78.3598C306.744 77.6297 306.155 76.9466 305.484 76.3813C303.694 74.8857 301.61 73.9318 299.396 73.2252C298.065 72.7894 296.687 72.5186 295.274 72.7423C293.872 72.9661 293.095 73.6727 292.848 75.0741C292.365 77.771 293.107 80.197 294.673 82.3875C294.967 82.7975 295.332 83.1618 295.709 83.5372C295.905 83.7332 296.104 83.9321 296.298 84.1422C296.26 84.2254 296.216 84.3127 296.17 84.4038C296.059 84.6221 295.937 84.8621 295.863 85.1197C295.627 85.8969 295.074 86.368 294.39 86.7213C293.908 86.9804 293.413 87.2277 292.895 87.4161C289.998 88.4525 287.631 87.3219 286.582 84.4249C286.135 83.1765 285.97 81.8811 286.064 80.5503C286.111 79.9144 285.805 79.4904 285.287 79.4551C284.757 79.4197 284.404 79.7848 284.357 80.4325C284.227 82.2461 284.498 83.9891 285.228 85.6496C286.582 88.6998 289.362 90.1012 292.6 89.2886C293.25 89.1244 293.873 88.8718 294.501 88.6172C294.819 88.4885 295.138 88.3592 295.462 88.2405C295.474 88.2876 295.497 88.4054 295.533 88.5231C295.621 88.7779 295.703 89.0375 295.784 89.2978C295.986 89.94 296.188 90.5863 296.499 91.1729C297.912 93.8933 300.455 95.0357 303.447 94.3762C304.872 94.0582 306.155 93.4223 307.31 92.5272ZM269.72 151.308C271.302 152.891 272.566 154.774 273.443 156.852C274.353 159.015 274.817 161.311 274.811 163.675C274.811 165.904 274.366 168.228 273.483 170.591C272.75 172.566 271.683 174.615 270.329 176.684C268.182 179.958 265.231 183.373 261.567 186.834C255.488 192.572 249.481 196.529 249.226 196.697L247.675 197.714C246.988 198.163 246.105 198.163 245.418 197.714L243.867 196.697C243.612 196.536 237.599 192.572 231.526 186.834C227.862 183.373 224.911 179.958 222.765 176.684C221.41 174.615 220.35 172.566 219.611 170.591C218.728 168.228 218.283 165.904 218.283 163.675C218.283 161.311 218.747 159.015 219.657 156.852C220.531 154.773 221.796 152.889 223.38 151.308C224.97 149.715 226.822 148.463 228.876 147.592C231.003 146.688 233.254 146.233 235.577 146.233C238.803 146.233 241.95 147.137 244.685 148.844C245.339 149.253 245.961 149.701 246.55 150.19C247.139 149.701 247.761 149.253 248.415 148.844C251.15 147.137 254.297 146.233 257.523 146.233C259.823 146.228 262.1 146.69 264.224 147.592C266.272 148.459 268.137 149.721 269.72 151.308Z" fill="#FFDC5B"/>
<path d="M17.1792 303.521C12.6103 303.521 8.86375 299.774 8.86375 295.205V237.088C8.86375 232.519 12.6103 228.773 17.1792 228.773C21.7482 228.773 25.4947 232.519 25.4947 237.088V258.836L50.898 231.971C52.6342 230.326 54.4618 228.773 57.1118 228.773C61.1325 228.773 64.6049 232.062 64.6049 236.174C64.6049 237.819 64.148 239.647 62.7773 240.835L45.1412 259.567L66.8894 291.093C67.8945 292.464 68.8997 294.109 68.8997 296.21C68.8997 300.322 65.4273 303.521 61.2239 303.521C58.2997 303.521 55.9239 301.876 54.2791 299.683L34.0843 270.167L25.4947 279.671V295.205C25.4947 299.774 21.7482 303.521 17.1792 303.521ZM122.189 248.876C126.575 248.876 130.139 252.44 130.139 256.826V295.662C130.139 300.048 126.575 303.521 122.006 303.521C117.802 303.521 114.239 300.505 114.239 296.85V294.017C110.583 300.688 104.096 304.069 96.237 304.069C82.7129 304.069 75.4026 294.291 75.4026 278.574V256.826C75.4026 252.44 78.9664 248.876 83.3525 248.876C87.7387 248.876 91.3025 252.44 91.3025 256.826V277.386C91.3025 284.971 95.2318 289.722 102.359 289.722C109.578 289.722 114.239 284.971 114.239 277.386V256.826C114.239 252.44 117.802 248.876 122.189 248.876ZM154.041 303.703C149.472 303.703 146 300.048 146 295.571V236.723C146 232.245 149.564 228.773 153.95 228.773C158.427 228.773 161.9 232.245 161.9 236.723V258.928C165.372 252.074 172.134 248.145 180.358 248.145C194.431 248.145 203.294 259.111 203.294 276.107C203.294 293.195 194.157 304.069 180.358 304.069C172.134 304.069 165.372 300.322 161.9 293.469V296.759C161.9 300.597 158.427 303.703 154.041 303.703ZM174.693 290.453C182.643 290.453 187.395 285.062 187.395 276.107C187.395 267.152 182.643 261.76 174.693 261.76C166.743 261.76 161.9 267.152 161.9 276.107C161.9 285.062 166.743 290.453 174.693 290.453ZM261.845 248.876C266.231 248.876 269.795 252.44 269.795 256.826V295.662C269.795 300.048 266.231 303.521 261.662 303.521C257.459 303.521 253.895 300.505 253.895 296.85V294.017C250.24 300.688 243.752 304.069 235.893 304.069C222.369 304.069 215.059 294.291 215.059 278.574V256.826C215.059 252.44 218.623 248.876 223.009 248.876C227.395 248.876 230.959 252.44 230.959 256.826V277.386C230.959 284.971 234.888 289.722 242.016 289.722C249.234 289.722 253.895 284.971 253.895 277.386V256.826C253.895 252.44 257.459 248.876 261.845 248.876ZM347.877 304.16C327.043 304.16 313.245 289.631 313.245 266.147C313.245 242.662 326.952 228.133 348.151 228.133C364.6 228.133 375.474 238.367 375.474 247.048C375.474 251.526 372.458 254.907 367.889 254.907C360.213 254.907 361.127 243.119 348.243 243.119C337.003 243.119 330.15 251.892 330.15 266.147C330.15 280.402 336.546 289.174 347.786 289.174C361.31 289.174 360.579 276.655 368.438 276.655C372.915 276.655 376.296 280.036 376.296 284.422C376.296 292.372 365.513 304.16 347.877 304.16ZM434.408 303.703C430.205 303.703 426.641 300.597 426.641 296.759V293.652C423.168 300.322 416.406 304.16 408.274 304.16C394.476 304.16 385.338 293.195 385.338 276.107C385.338 259.202 394.11 248.236 408.274 248.236C416.498 248.236 423.168 252.074 426.641 258.836V255.638C426.641 251.8 430.296 248.876 434.408 248.876C439.068 248.876 442.541 252.348 442.541 256.735V295.571C442.541 300.048 439.068 303.703 434.408 303.703ZM413.939 290.453C421.432 290.453 426.641 285.153 426.641 276.198C426.641 267.152 421.432 261.852 413.939 261.852C405.989 261.852 401.238 267.152 401.238 276.198C401.238 285.153 405.989 290.453 413.939 290.453ZM482.178 302.698C470.207 302.698 462.074 294.474 462.074 281.316V263.04H459.059C454.673 263.04 451.84 260.298 451.84 256.369C451.84 252.348 454.581 249.698 458.511 249.698H462.074V243.485C462.074 238.733 465.181 235.535 470.024 235.535C474.776 235.535 477.974 238.733 477.974 243.485V249.698H486.838C491.316 249.698 494.148 252.348 494.148 256.369C494.148 260.39 491.316 263.04 486.838 263.04H477.974V280.859C477.974 286.067 480.259 289.266 485.65 289.266H486.838C491.224 289.266 494.057 291.916 494.057 295.936C494.057 300.048 491.224 302.698 486.838 302.698H482.178Z" fill="#FFDC5B"/>
<path d="M198.878 368.91C195.377 368.91 193.457 366.99 193.457 363.488V329.151C193.457 325.649 195.377 323.729 198.878 323.729H216.894C224.123 323.729 228.529 328.078 228.529 334.855C228.529 340.503 225.196 344.569 219.775 345.868C225.535 346.997 229.093 351.12 229.093 356.994C229.093 364.223 224.349 368.91 216.669 368.91H198.878ZM213.167 361.116C216.612 361.116 218.758 358.914 218.758 355.412C218.758 351.967 216.669 349.821 213.167 349.821H203.735V361.116H213.167ZM213.336 342.027C216.499 342.027 218.532 340.051 218.532 336.775C218.532 333.556 216.556 331.523 213.336 331.523H203.735V342.027H213.336ZM265.855 369.531C263.257 369.531 261.055 367.611 261.055 365.239V363.319C258.909 367.442 254.729 369.814 249.703 369.814C241.175 369.814 235.527 363.037 235.527 352.476C235.527 342.027 240.949 335.25 249.703 335.25C254.786 335.25 258.909 337.622 261.055 341.801V339.825C261.055 337.453 263.314 335.646 265.855 335.646C268.735 335.646 270.882 337.792 270.882 340.503V364.505C270.882 367.272 268.735 369.531 265.855 369.531ZM253.204 361.342C257.835 361.342 261.055 358.067 261.055 352.532C261.055 346.941 257.835 343.665 253.204 343.665C248.291 343.665 245.354 346.941 245.354 352.532C245.354 358.067 248.291 361.342 253.204 361.342ZM285.665 369.418C282.898 369.418 280.695 367.272 280.695 364.505V328.134C280.695 325.367 282.898 323.221 285.609 323.221C288.376 323.221 290.522 325.367 290.522 328.134V364.505C290.522 367.272 288.376 369.418 285.665 369.418ZM305.243 369.418C302.532 369.418 300.33 367.272 300.33 364.505V340.503C300.33 337.792 302.532 335.646 305.243 335.646C308.01 335.646 310.156 337.792 310.156 340.503V364.505C310.156 367.272 308.01 369.418 305.243 369.418ZM305.243 331.749C302.532 331.749 300.33 329.546 300.33 326.835C300.33 324.068 302.532 321.922 305.243 321.922C308.01 321.922 310.156 324.068 310.156 326.835C310.156 329.546 308.01 331.749 305.243 331.749Z" fill="#FFDC5B"/>
</svg>
