<svg width="531" height="557" viewBox="0 0 531 557" fill="none" xmlns="http://www.w3.org/2000/svg">
<path fill-rule="evenodd" clip-rule="evenodd" d="M378.52 195.905C388.988 189.894 406.425 184.58 411.086 211.904L411.072 211.919C417.852 251.7 407.195 266.698 400.908 262.662C397.511 260.484 386.056 247.345 377.765 233.276L363.813 288.781C361.243 298.988 350.107 304.418 340.481 300.164L333.948 297.275C334.166 298.175 334.398 299.046 334.645 299.874C336.837 307.264 338.841 314.712 340.626 322.218C344.735 339.408 347.973 357.063 348.278 374.776C348.438 383.966 347 390.935 344.648 396.206C349.585 394.217 354.492 391.835 359.08 388.888C369.228 382.355 376.575 373.571 379.769 364.177C383.326 353.651 381.482 342.094 375.036 334.733C373.453 332.933 373.628 330.174 375.442 328.592C377.257 327.009 380.001 327.183 381.584 328.998C390.034 338.653 392.546 353.564 388.001 366.965C384.183 378.217 375.573 388.612 363.769 396.206C353.301 402.942 341.628 406.906 331.364 409.853C323.77 413.265 316.482 412.307 316.482 412.307C316.482 412.307 306.377 410.87 217.565 412.307C209.841 412.423 201.696 411.683 194.248 409.403C193.668 409.577 193.029 409.664 192.375 409.577C187.962 409.026 183.403 409.447 178.583 409.897C176.666 410.086 174.75 410.26 172.833 410.376C171.556 410.449 170.162 410.507 168.681 410.507C163.077 410.507 156.267 409.665 150.474 405.817C143.447 401.157 138.685 390.892 143.258 382.442C144.246 380.627 145.538 379.117 146.685 377.781C148.05 376.199 149.211 374.834 149.4 373.585C149.574 372.409 148.717 370.856 147.367 369.898C145.886 368.852 143.767 368.228 140.877 367.996C139.643 367.894 138.366 367.865 137.03 367.836L137.008 367.835C133.748 367.763 130.387 367.688 126.954 366.616C121.19 364.816 115.557 359.241 116.486 352.446C116.82 350.065 119.027 348.395 121.393 348.715C123.774 349.049 125.444 351.241 125.125 353.622C124.878 355.481 127.259 357.586 129.553 358.297C131.818 359.009 134.446 359.067 137.233 359.125C137.451 359.131 137.67 359.138 137.889 359.144C139.091 359.179 140.322 359.215 141.574 359.313C146.061 359.676 149.618 360.823 152.42 362.812C156.471 365.687 158.663 370.406 158.024 374.849C157.473 378.605 155.155 381.303 153.297 383.465L153.291 383.473L153.255 383.515C152.325 384.602 151.455 385.619 150.924 386.594C148.79 390.529 151.52 396.06 155.294 398.558C159.215 401.157 164.616 402.158 172.31 401.679C174.14 401.563 175.969 401.403 177.799 401.229C177.971 401.215 178.146 401.198 178.323 401.181C178.52 401.162 178.718 401.143 178.917 401.127C175.359 397.948 172.412 393.984 170.409 389.019C165.617 377.201 166.808 363.596 169.407 351.415C169.607 350.477 169.809 349.508 170.016 348.517C171.434 341.733 173.08 333.853 175.766 326.835C156.558 323.089 140.485 309.006 135.709 289.333C134.547 284.527 134.141 279.722 134.402 275.018L123.789 253.951L117.096 240.666C114.932 236.369 118.112 232.173 122.831 233.102L137.436 235.977L152.536 238.953C158.779 233.625 166.372 229.617 174.967 227.527C178.568 226.656 182.183 226.162 185.74 226.017L199.112 213.226L210.103 202.714C213.645 199.317 219.235 201.117 220.15 205.937L222.995 220.892L227.308 243.584C232.433 249.421 236.237 256.477 238.182 264.477C241.942 279.968 237.877 295.605 228.469 307.467C237.18 310.211 244.062 316.396 250.828 323.597C256.36 329.477 266.044 328.098 269.818 320.955C271.953 316.911 274.083 312.872 276.214 308.832C278.345 304.792 280.475 300.752 282.61 296.709C283.719 294.608 284.663 292.4 285.608 290.189C287.126 286.64 288.647 283.085 290.856 279.954C291.176 279.504 291.524 279.068 291.887 278.633L274.74 271.039C265.245 266.829 261.717 255.141 267.307 246.387L296.097 201.277C281.535 207.2 265.666 210.641 261.79 210.38C254.327 209.872 254.69 191.491 283.815 163.557C305.346 142.911 316.264 161.437 320.503 172.515C323.886 171.804 327.502 172.123 330.855 173.604L373.497 192.478C375.413 193.335 377.098 194.511 378.52 195.905ZM193.479 297.964C193.533 297.997 193.588 298.03 193.639 298.059L193.624 298.044L193.696 298.086C194.254 298.407 194.828 298.737 195.468 298.973C198.633 300.135 201.595 299.206 203.569 296.418C204.441 295.199 205.021 293.761 205.297 292.179C205.413 291.554 205.471 290.901 205.486 290.233C205.5 289.798 205.326 289.406 205.021 289.115C204.731 288.854 204.353 288.694 203.961 288.694C203.09 288.68 202.48 289.275 202.364 290.088C202.35 290.175 202.35 290.277 202.35 290.465V290.465C202.234 292.034 201.813 293.34 201.072 294.487C200.041 296.07 198.604 296.607 196.804 296.099C195.962 295.866 195.236 295.402 194.379 294.821C194.06 294.603 193.856 294.255 193.697 293.906C193.629 293.765 193.576 293.614 193.523 293.463C193.441 293.228 193.359 292.992 193.218 292.789C193.029 292.498 192.695 292.309 192.375 292.208C192.071 292.121 191.722 292.121 191.417 292.237C190.836 292.44 190.27 293.166 190.343 293.819C190.343 293.892 190.357 293.979 190.386 294.052C190.411 294.129 190.437 294.204 190.462 294.277C190.554 294.548 190.639 294.8 190.662 295.097C190.706 295.489 190.648 295.896 190.502 296.273C190.328 296.723 190.154 297.173 189.936 297.594C188.702 299.946 186.626 300.571 184.274 299.322C183.229 298.77 182.299 297.986 181.53 297.013C181.196 296.578 180.775 296.331 180.325 296.273C179.933 296.229 179.541 296.346 179.207 296.607C178.481 297.173 178.408 298.146 179.047 298.959C180.252 300.498 181.733 301.674 183.446 302.429C184.506 302.894 185.552 303.126 186.568 303.126C188.804 303.126 190.822 302.008 192.216 299.917C192.622 299.307 192.942 298.654 193.247 298.015C193.261 297.993 193.272 297.968 193.283 297.943C193.294 297.917 193.305 297.892 193.319 297.87C193.37 297.899 193.424 297.932 193.479 297.964ZM334.311 268.31C334.921 267.845 335.487 267.323 336.01 266.771L335.995 266.742C336.387 266.335 336.3 265.711 335.908 265.334C335.516 264.985 334.906 264.971 334.471 265.334C334.403 265.391 334.343 265.455 334.28 265.521C334.247 265.555 334.215 265.589 334.18 265.624C332.772 266.96 331.16 267.976 329.258 268.47C326.63 269.152 324.453 268.295 323.015 266.001C322.347 264.942 322.042 263.751 321.738 262.546C321.437 261.342 321.911 260.405 322.388 259.464C322.509 259.225 322.631 258.986 322.739 258.742C327.022 259.802 332.002 257.377 333.948 254.764C334.906 253.486 335.109 252.165 334.224 250.844C333.614 249.944 332.888 249.102 332.06 248.405C329.854 246.561 327.284 245.385 324.554 244.514C322.914 243.976 321.215 243.643 319.473 243.918C317.745 244.194 316.787 245.065 316.482 246.793C315.887 250.118 316.801 253.109 318.732 255.809C319.095 256.315 319.545 256.764 320.009 257.227C320.251 257.468 320.497 257.714 320.736 257.973C320.689 258.075 320.634 258.183 320.577 258.295C320.441 258.564 320.291 258.86 320.199 259.178C319.908 260.136 319.226 260.717 318.384 261.152C317.788 261.472 317.179 261.776 316.54 262.009C312.968 263.286 310.05 261.893 308.758 258.321C308.206 256.782 308.003 255.185 308.119 253.544C308.177 252.76 307.8 252.238 307.161 252.194C306.507 252.15 306.072 252.601 306.014 253.399C305.854 255.635 306.188 257.784 307.088 259.831C308.758 263.591 312.184 265.319 316.177 264.317C316.977 264.115 317.746 263.803 318.52 263.489C318.912 263.331 319.305 263.171 319.705 263.025C319.709 263.04 319.714 263.062 319.72 263.088C319.736 263.16 319.76 263.267 319.792 263.373C319.901 263.688 320.001 264.008 320.102 264.329C320.35 265.12 320.6 265.917 320.983 266.64C322.725 269.994 325.861 271.402 329.549 270.589C331.305 270.197 332.888 269.413 334.311 268.31ZM287.968 340.778C289.917 342.729 291.476 345.051 292.558 347.613C293.679 350.279 294.252 353.11 294.244 356.024C294.244 358.773 293.695 361.637 292.606 364.551C291.703 366.986 290.388 369.512 288.718 372.062C286.072 376.099 282.434 380.308 277.916 384.576C270.422 391.65 263.017 396.528 262.702 396.735L260.79 397.989C259.943 398.542 258.854 398.542 258.007 397.989L256.095 396.735C255.781 396.536 248.367 391.65 240.881 384.576C236.364 380.308 232.725 376.099 230.079 372.062C228.41 369.512 227.103 366.986 226.191 364.551C225.102 361.637 224.554 358.773 224.554 356.024C224.554 353.11 225.126 350.279 226.248 347.613C227.326 345.049 228.885 342.727 230.838 340.778C232.798 338.814 235.081 337.27 237.614 336.197C240.236 335.083 243.011 334.521 245.874 334.521C249.851 334.521 253.732 335.636 257.104 337.741C257.91 338.244 258.677 338.797 259.403 339.4C260.129 338.797 260.895 338.244 261.702 337.741C265.074 335.636 268.954 334.521 272.931 334.521C275.766 334.515 278.573 335.084 281.191 336.197C283.716 337.266 286.016 338.821 287.968 340.778Z" fill="#FFDC5B"/>
<path d="M0.549412 295.911C0.548743 295.94 0.55096 295.969 0.555853 295.998C0.52741 297.8 0.878709 299.105 1.69657 299.954C2.53157 300.821 3.75496 301.111 5.20889 301.111H22.7736C24.3232 301.111 25.5773 299.857 25.5773 298.307C25.5773 296.758 24.3232 295.504 22.7736 295.504H7.24851C7.37839 293.55 8.35889 292.183 9.83543 291.051C11.2152 289.993 12.9898 289.168 14.8796 288.29C15.2052 288.138 15.5342 287.985 15.8653 287.829C18.0873 286.782 20.3766 285.605 22.1052 283.859C23.853 282.095 25.0139 279.765 25.0139 276.459C25.0139 273.263 23.9016 270.615 21.8622 268.769C19.8278 266.927 16.9163 265.925 13.3864 265.925C5.79088 265.925 1.59323 271.131 1.59323 275.158C1.59323 275.998 1.78635 276.836 2.29284 277.473C2.81294 278.127 3.61508 278.509 4.69521 278.509C5.30365 278.509 5.81267 278.387 6.2409 278.154C6.66893 277.922 6.98923 277.594 7.24199 277.221C7.62845 276.652 7.8844 275.925 8.1265 275.238C8.18782 275.064 8.24826 274.892 8.30971 274.727C8.62854 273.866 8.99274 273.084 9.63736 272.508C10.2681 271.944 11.2205 271.533 12.8064 271.533C14.5907 271.533 16.0315 272.063 17.0205 272.952C18.0051 273.837 18.5779 275.11 18.5779 276.675C18.5779 278.951 17.5619 280.457 15.98 281.658C14.5712 282.727 12.7463 283.53 10.7998 284.387C10.5154 284.513 10.2284 284.639 9.93975 284.768C7.70623 285.762 5.39394 286.877 3.62693 288.576C1.83982 290.295 0.624687 292.594 0.549412 295.911Z" fill="#FFDC5B" stroke="#FFDC5B" stroke-width="0.901407" stroke-linejoin="round"/>
<path d="M42.597 265.925C38.4269 265.925 35.0256 267.66 32.6802 270.795C30.3454 273.917 29.0805 278.393 29.0805 283.858C29.0805 289.323 30.3454 293.799 32.6802 296.92C35.0256 300.056 38.4269 301.79 42.597 301.79C46.7672 301.79 50.1685 300.056 52.5139 296.92C54.8487 293.799 56.1135 289.323 56.1135 283.858C56.1135 278.393 54.8487 273.917 52.5139 270.795C50.1685 267.66 46.7672 265.925 42.597 265.925ZM42.597 271.831C44.7032 271.831 46.4281 272.91 47.6484 274.952C48.879 277.01 49.5865 280.039 49.5865 283.858C49.5865 287.676 48.879 290.706 47.6484 292.764C46.4281 294.805 44.7032 295.885 42.597 295.885C40.4909 295.885 38.766 294.805 37.5457 292.764C36.315 290.706 35.6076 287.676 35.6076 283.858C35.6076 280.039 36.315 277.01 37.5457 274.952C38.766 272.91 40.4909 271.831 42.597 271.831Z" fill="#FFDC5B" stroke="#FFDC5B" stroke-width="0.901407" stroke-linejoin="round"/>
<path d="M482.106 296.464C482.236 294.511 483.217 293.144 484.693 292.012C486.073 290.954 487.848 290.129 489.737 289.25C490.063 289.099 490.392 288.946 490.723 288.79C492.945 287.743 495.234 286.566 496.963 284.82C498.711 283.056 499.872 280.726 499.872 277.42C499.872 274.224 498.759 271.576 496.72 269.73C494.686 267.888 491.774 266.886 488.244 266.886C480.649 266.886 476.451 272.092 476.451 276.119C476.451 276.959 476.644 277.797 477.151 278.434C477.671 279.088 478.473 279.47 479.553 279.47C480.161 279.47 480.67 279.348 481.099 279.115C481.527 278.883 481.847 278.555 482.1 278.182C482.486 277.613 482.742 276.886 482.984 276.199C483.046 276.025 483.106 275.853 483.167 275.688C483.486 274.827 483.851 274.045 484.495 273.469C485.126 272.905 486.078 272.494 487.664 272.494C489.448 272.494 490.889 273.024 491.878 273.913C492.863 274.798 493.436 276.071 493.436 277.635C493.436 279.912 492.42 281.418 490.838 282.619C489.429 283.688 487.604 284.491 485.658 285.348C485.373 285.474 485.086 285.6 484.798 285.728C482.564 286.723 480.252 287.838 478.485 289.537C476.721 291.233 475.515 293.494 475.411 296.74C475.399 296.779 475.392 296.821 475.391 296.863C475.348 298.715 475.697 300.051 476.53 300.915C477.365 301.782 478.588 302.072 480.042 302.072H497.606C499.156 302.072 500.41 300.818 500.41 299.268C500.41 297.718 499.156 296.464 497.606 296.464H482.106Z" fill="#FFDC5B" stroke="#FFDC5B" stroke-width="0.901407" stroke-linejoin="round"/>
<path d="M524.501 299.155V293.093H526.743C528.329 293.093 529.671 291.803 529.671 290.165C529.671 288.528 528.329 287.237 526.743 287.237H524.501V271.59C524.501 269.243 522.582 267.27 520.223 267.27C518.861 267.27 517.642 267.925 516.89 268.862C516.889 268.862 516.889 268.863 516.888 268.864L502.185 286.806L502.185 286.806L502.177 286.816C501.678 287.46 501.288 288.317 501.288 289.237C501.288 291.379 503.051 293.093 505.143 293.093H518.057V299.068C518.051 299.096 518.049 299.125 518.049 299.155C518.049 300.92 519.51 302.381 521.275 302.381C523.04 302.381 524.501 300.92 524.501 299.155ZM508.314 287.229L518.057 275.13V287.229H508.314Z" fill="#FFDC5B" stroke="#FFDC5B" stroke-width="0.901407" stroke-linejoin="round"/>
<path d="M84.6732 145.797C85.9749 143.691 85.2956 140.889 83.1423 139.56L83.141 139.56C82.4236 139.12 81.5601 138.836 80.7482 138.864L51.0977 139.363L45.1006 120.011C44.8258 119.089 44.0347 118.459 43.2997 118.003L43.2987 118.002C41.2468 116.736 38.542 117.383 37.2767 119.433C36.4921 120.7 36.5892 122.12 36.9973 123.423C36.9975 123.424 36.9977 123.425 36.998 123.425L45.5017 151.58L29.2385 141.557L29.2383 141.557C27.022 140.192 24.0431 140.895 22.6777 143.113C21.3132 145.329 22.0159 148.308 24.2335 149.673C24.2335 149.673 24.2336 149.673 24.2337 149.673L62.2295 173.096C62.2557 173.112 62.2835 173.125 62.3122 173.136C64.5213 174.446 67.4549 173.736 68.8069 171.54C70.1714 169.324 69.4686 166.345 67.2509 164.979L57.1463 158.747L53.9034 148.275L80.7153 147.959L80.7154 147.959L80.7259 147.959C82.2482 147.905 83.7894 147.239 84.6732 145.797ZM84.6732 145.797C84.673 145.798 84.6728 145.798 84.6726 145.798L84.2892 145.561M84.6732 145.797C84.6733 145.797 84.6734 145.797 84.6735 145.797L84.2892 145.561M84.2892 145.561C83.5022 146.846 82.1185 147.459 80.71 147.508L80.7598 139.314C81.464 139.289 82.2428 139.538 82.9056 139.944C84.8526 141.145 85.4575 143.672 84.2892 145.561Z" fill="#FFDC5B" stroke="#FFDC5B" stroke-width="0.901407" stroke-linejoin="round"/>
<path d="M52.5908 106.36L52.5902 106.36C50.6951 104.575 50.5932 101.514 52.3806 99.6165C54.1657 97.7216 57.2259 97.6195 59.1234 99.4063L52.5908 106.36ZM52.5908 106.36L72.7324 125.262C72.7473 125.282 72.7638 125.3 72.7819 125.317C77.7606 129.989 83.1714 132.385 88.458 132.425C93.7503 132.466 98.8532 130.145 103.204 125.512C107.555 120.879 109.549 115.639 109.175 110.36C108.8 105.086 106.067 99.8369 101.088 95.1643L100.811 95.459L101.088 95.1643L80.8975 76.2166C80.8974 76.2164 80.8972 76.2163 80.8971 76.2162C78.9997 74.4292 75.9393 74.5312 74.1542 76.4261C72.3668 78.3235 72.4687 81.3842 74.3638 83.1694L74.3643 83.17L95.4585 102.972L95.4586 102.972C98.286 105.625 99.7927 108.532 100.026 111.373C100.258 114.207 99.2291 117.037 96.8633 119.56C94.4976 122.082 91.7383 123.288 88.8945 123.235C86.0437 123.181 83.045 121.861 80.2175 119.208C80.2175 119.208 80.2175 119.208 80.2174 119.208L59.1239 99.4069L52.5908 106.36Z" fill="#FFDC5B" stroke="#FFDC5B" stroke-width="0.901407" stroke-linejoin="round"/>
<path d="M120.56 100.1C120.573 100.118 120.587 100.136 120.603 100.152C121.475 101.389 122.518 102.167 123.711 102.383C124.923 102.603 126.195 102.225 127.468 101.34C127.468 101.34 127.468 101.34 127.468 101.34L142.746 90.7514L142.513 90.4154L142.746 90.7514C146.477 88.1654 148.764 84.9335 149.48 81.4225C150.196 77.9086 149.325 74.1791 146.861 70.629C144.886 67.7814 142.308 65.8974 139.404 65.0851C136.976 64.4061 134.344 64.4825 131.677 65.3434C135.099 60.6058 135.148 54.8987 131.699 49.9243L131.699 49.9241C129.368 46.5652 126.359 44.5576 123.017 44.0265C119.678 43.4958 116.07 44.4493 112.555 46.886L112.554 46.8861L97.1195 57.5903C95.8465 58.4709 95.0464 59.5287 94.827 60.7411C94.6075 61.9536 94.9859 63.2255 95.8708 64.4984L120.56 100.1ZM124.993 56.6438C125.005 56.6614 125.019 56.678 125.033 56.6935C126.237 58.4523 126.646 60.22 126.361 61.8238C126.073 63.4449 125.065 64.9615 123.317 66.1741C123.317 66.1741 123.317 66.1741 123.317 66.1741L113.414 73.0425L105.576 61.7366L115.529 54.835L115.529 54.8349C117.276 53.6224 119.034 53.2192 120.637 53.5257C122.242 53.8325 123.757 54.8631 124.993 56.6438ZM126.537 91.9742L118.103 79.8066L127.893 73.0164C127.894 73.0158 127.895 73.0152 127.896 73.0146C129.83 71.7157 131.739 71.2699 133.465 71.5821C135.19 71.8943 136.799 72.9763 138.109 74.8629C139.434 76.7739 139.9 78.7109 139.597 80.4712C139.295 82.2302 138.215 83.8738 136.333 85.1805L126.537 91.9742Z" fill="#FFDC5B" stroke="#FFDC5B" stroke-width="0.901407" stroke-linejoin="round"/>
<path d="M152.697 59.3611C152.71 59.3922 152.726 59.4213 152.745 59.4482C155.367 65.6973 159.302 70.0686 164.081 72.2635C168.89 74.4721 174.495 74.45 180.363 72.007C186.23 69.564 190.196 65.6022 192.019 60.6336C193.84 55.6704 193.501 49.7635 190.879 43.4634L190.879 43.4634L180.241 17.9035L180.24 17.9022C179.233 15.5037 176.411 14.3337 174.002 15.3322L174.002 15.3322L174 15.333C171.601 16.34 170.431 19.1624 171.43 21.5716L171.43 21.5721L182.54 48.2836C182.541 48.2836 182.541 48.2836 182.541 48.2837C184.029 51.8659 184.211 55.1368 183.259 57.8236C182.309 60.5037 180.21 62.662 177.017 63.9915C173.824 65.3211 170.812 65.2906 168.24 64.0767C165.662 62.8597 163.469 60.4262 161.98 56.8442L161.98 56.8441L150.87 30.1326L150.869 30.1312C149.862 27.7326 147.04 26.5627 144.631 27.5612L144.629 27.562C142.23 28.569 141.06 31.3914 142.059 33.8006L142.059 33.8012L152.697 59.3611Z" fill="#FFDC5B" stroke="#FFDC5B" stroke-width="0.901407" stroke-linejoin="round"/>
<path d="M241.456 0.666825L241.498 1.11551L246.635 55.3257L246.678 55.7744C253.683 55.1118 258.28 51.9268 261.072 48.3721C263.846 44.8408 264.852 40.9241 264.649 38.7627L264.649 38.7625C264.411 36.2504 262.34 34.4543 259.866 34.6859L259.866 34.6859C258.298 34.8337 257.289 35.7298 256.5 36.9048C256.108 37.4871 255.763 38.1488 255.426 38.8347C255.311 39.0671 255.198 39.3011 255.085 39.5367C254.858 40.0061 254.629 40.482 254.378 40.9649C253.631 42.4053 252.74 43.8192 251.393 44.9384C250.054 46.0515 248.236 46.8958 245.598 47.1469L245.598 47.1469C241.309 47.5558 237.842 46.0972 235.294 43.094C232.729 40.0715 231.068 35.4506 230.505 29.5079C229.943 23.5727 230.817 18.713 232.879 15.2508C234.93 11.8057 238.177 9.70776 242.469 9.30261L242.469 9.30257C245.06 9.05556 246.944 9.53113 248.408 10.3507C249.88 11.1752 250.96 12.3666 251.913 13.613C252.22 14.0142 252.506 14.4107 252.789 14.803C252.95 15.0261 253.11 15.2479 253.272 15.4683C253.712 16.0661 254.158 16.6399 254.639 17.129C255.614 18.1187 256.764 18.7896 258.343 18.64L258.344 18.64C259.648 18.5156 260.654 17.8839 261.293 16.9456C261.927 16.0164 262.183 14.8149 262.064 13.5587M241.456 0.666825C254.587 -0.581319 261.574 8.41421 262.064 13.5587M241.456 0.666825C234.527 1.32466 228.964 4.51732 225.345 9.69447C221.742 14.8463 220.092 21.9222 220.875 30.3349L241.456 0.666825ZM262.064 13.5587L261.615 13.6013L262.063 13.5585C262.063 13.5586 262.064 13.5586 262.064 13.5587Z" fill="#FFDC5B" stroke="#FFDC5B" stroke-width="0.901407" stroke-linejoin="round"/>
<path d="M267.993 47.4489L267.993 47.4489L267.99 47.457C267.795 47.8836 267.748 48.3183 267.705 48.7241C267.705 48.7286 267.704 48.733 267.704 48.7375C267.695 48.7656 267.689 48.795 267.686 48.8252C267.438 51.2836 269.182 53.51 271.652 53.7597L271.652 53.7597C273.689 53.9634 275.415 52.808 276.24 51.0248C276.24 51.0242 276.24 51.0236 276.241 51.023L281.29 40.3281L299.083 42.1203L301.907 53.5519L301.907 53.5532C302.367 55.3943 303.867 57.0098 305.977 57.2229C308.513 57.4811 310.738 55.5834 310.995 53.068C311.041 52.6357 311.023 52.1223 310.92 51.6632L310.92 51.6632L310.917 51.6512L299.385 6.15086C299.384 6.15048 299.384 6.15009 299.384 6.14971C299.043 4.77614 298.482 3.69534 297.626 2.92349C296.768 2.14932 295.656 1.72519 294.287 1.58568C292.917 1.44608 291.743 1.64092 290.748 2.22916C289.757 2.81552 288.992 3.76326 288.383 5.03741C288.383 5.03754 288.383 5.03767 288.383 5.0378L267.993 47.4489ZM285.116 32.3716L292.775 16.4556L296.934 33.5608L285.116 32.3716Z" fill="#FFDC5B" stroke="#FFDC5B" stroke-width="0.901407" stroke-linejoin="round"/>
<path d="M322.766 56.5822C322.761 56.6024 322.757 56.6226 322.754 56.6429C322.11 59.1298 323.612 61.7502 326.096 62.4393L326.096 62.4394C328.614 63.1353 331.274 61.628 331.97 59.1179L331.97 59.1177L342.712 20.3133L354.389 23.5482C354.389 23.5483 354.389 23.5483 354.39 23.5484C356.64 24.1777 359.127 22.8229 359.775 20.5011L359.775 20.4994C360.398 18.2302 358.955 15.7921 356.701 15.1731L324.149 6.16733L324.149 6.16723C321.907 5.5491 319.406 6.88522 318.781 9.15764C318.134 11.4814 319.572 13.9225 321.83 14.5427C321.83 14.5427 321.83 14.5427 321.83 14.5427L333.508 17.7777L322.766 56.5822Z" fill="#FFDC5B" stroke="#FFDC5B" stroke-width="0.901407" stroke-linejoin="round"/>
<path d="M370.782 73.3821C370.792 73.357 370.804 73.3325 370.818 73.309L393.536 36.4072L370.782 73.3821ZM370.782 73.3821C370 74.677 369.707 75.9427 369.987 77.1199C370.271 78.3194 371.128 79.3325 372.449 80.1433L388.282 89.8865L388.518 89.5027L388.282 89.8865C392.148 92.2655 396.027 93.0632 399.532 92.3097C403.039 91.5557 406.107 89.2613 408.372 85.5799C410.19 82.6301 410.883 79.5136 410.462 76.5274C410.111 74.0315 408.986 71.6507 407.128 69.5528C412.844 70.7909 418.088 68.5462 421.264 63.3921L421.264 63.392C423.408 59.9098 424.041 56.348 423.187 53.0727C422.333 49.8004 420.011 46.8776 416.369 44.6355C416.369 44.6355 416.369 44.6355 416.369 44.6355L400.371 34.7847C399.05 33.9697 397.759 33.6599 396.559 33.9447C395.36 34.2294 394.347 35.0861 393.536 36.4067L370.782 73.3821ZM400.968 79.2663C400.957 79.2837 400.948 79.3018 400.939 79.3204C399.721 81.2758 398.143 82.4635 396.422 82.8885C394.689 83.3165 392.751 82.9858 390.801 81.7864C390.801 81.7864 390.801 81.7864 390.801 81.7863L380.646 75.5353L388.409 62.9224L398.559 69.1703C398.56 69.1708 398.56 69.1713 398.561 69.1718C400.53 70.4198 401.705 71.9906 402.111 73.6973C402.517 75.4038 402.17 77.3121 400.968 79.2663ZM399.942 44.1977L410.262 50.548C412.073 51.6656 413.148 53.1156 413.511 54.7075C413.874 56.3007 413.538 58.1009 412.402 59.9448C411.266 61.7867 409.798 62.8917 408.197 63.2789C406.597 63.666 404.803 63.3509 402.988 62.2333L402.988 62.2333L392.726 55.916L399.942 44.1977Z" fill="#FFDC5B" stroke="#FFDC5B" stroke-width="0.901407" stroke-linejoin="round"/>
<path d="M406.01 96.1428C405.981 96.1621 405.954 96.185 405.929 96.2113C404.251 98.0178 404.288 100.847 406.11 102.54M406.01 96.1428L411.414 103.132L411.416 103.131C409.679 104.053 407.611 103.939 406.11 102.54M406.01 96.1428C406.288 95.8492 406.586 95.538 406.988 95.3187L406.998 95.3132L406.998 95.3133L448.879 73.8468C448.879 73.8467 448.88 73.8466 448.88 73.8465C450.137 73.1987 451.319 72.906 452.464 73.0385C453.613 73.1714 454.665 73.7254 455.673 74.6632C456.681 75.601 457.309 76.6122 457.524 77.748C457.738 78.8803 457.531 80.0796 456.973 81.3758C456.973 81.3761 456.973 81.3764 456.973 81.3768L438.664 124.59L438.657 124.605C438.461 125.024 438.169 125.443 437.877 125.762L437.874 125.765C436.153 127.615 433.234 127.778 431.364 126.046L431.363 126.045C429.808 124.601 429.596 122.399 430.336 120.659L430.337 120.657L435 109.846L421.903 97.6615L411.417 103.13L406.01 96.1428ZM406.11 102.54C406.11 102.54 406.11 102.54 406.109 102.54L406.417 102.21L406.11 102.54C406.11 102.54 406.11 102.54 406.11 102.54ZM429.763 93.6437L445.485 85.596L438.454 101.736L429.763 93.6437Z" fill="#FFDC5B" stroke="#FFDC5B" stroke-width="0.901407" stroke-linejoin="round"/>
<path d="M455.866 157.22L455.866 157.22L482.743 111.323L482.475 110.96L482.744 111.322L482.744 111.322C484.841 109.773 485.288 106.74 483.732 104.652C482.183 102.554 479.15 102.107 477.061 103.664C477.061 103.664 477.061 103.664 477.06 103.664L441.75 129.886C440.503 130.81 439.737 131.896 439.557 133.116C439.377 134.337 439.796 135.596 440.72 136.839L455.866 157.22ZM450.429 135.329L450.16 134.967L449.798 135.236L450.067 135.598L450.429 135.329ZM462.483 152.312L462.844 152.043L462.844 152.043L462.483 152.312ZM461.939 158.167C461.939 158.167 461.94 158.167 461.94 158.166L461.671 157.805L461.939 158.167Z" fill="#FFDC5B" stroke="#FFDC5B" stroke-width="0.901407" stroke-linejoin="round"/>
<path d="M464.284 163.682L464.283 163.682C462.003 164.945 461.153 167.887 462.417 170.169C463.681 172.448 466.622 173.299 468.904 172.035C468.904 172.035 468.904 172.035 468.904 172.035L507.969 150.435L507.969 150.435C510.249 149.172 511.099 146.23 509.835 143.948C508.571 141.668 505.63 140.818 503.348 142.082L464.284 163.682Z" fill="#FFDC5B" stroke="#FFDC5B" stroke-width="0.901407" stroke-linejoin="round"/>
<path d="M470.134 383.782C470.108 383.766 470.08 383.753 470.051 383.742C467.842 382.432 464.909 383.142 463.557 385.338C462.192 387.554 462.895 390.533 465.113 391.899L475.217 398.131L478.46 408.603L451.648 408.919L451.648 408.919L451.637 408.919C450.115 408.973 448.574 409.639 447.69 411.08C446.388 413.187 447.068 415.989 449.221 417.318L449.222 417.318C449.94 417.758 450.803 418.042 451.615 418.014L481.266 417.515L487.262 436.864C487.262 436.865 487.262 436.866 487.263 436.866C487.538 437.789 488.329 438.419 489.064 438.875L489.065 438.876C491.117 440.142 493.821 439.495 495.087 437.445C495.871 436.178 495.774 434.758 495.366 433.455C495.366 433.454 495.366 433.453 495.365 433.453L486.862 405.298L503.125 415.321L503.125 415.321C505.341 416.686 508.32 415.983 509.686 413.765C511.05 411.549 510.347 408.57 508.13 407.205C508.13 407.205 508.13 407.205 508.13 407.204L470.134 383.782Z" fill="#FFDC5B" stroke="#FFDC5B" stroke-width="0.901407" stroke-linejoin="round"/>
<path d="M479.765 450.532L479.766 450.532C481.661 452.318 481.763 455.378 479.976 457.276C478.191 459.171 475.13 459.273 473.233 457.486L479.765 450.532ZM479.765 450.532L459.624 431.63C459.609 431.611 459.592 431.592 459.574 431.575C454.596 426.903 449.185 424.507 443.898 424.467C438.606 424.426 433.503 426.747 429.152 431.38C424.801 436.013 422.807 441.253 423.182 446.532C423.556 451.806 426.29 457.055 431.268 461.728L431.577 461.399L431.268 461.728L451.459 480.676L479.765 450.532ZM452.139 437.684L473.232 457.485L451.459 480.676C453.357 482.463 456.417 482.361 458.202 480.466C459.989 478.569 459.888 475.508 457.993 473.723L457.992 473.722L436.898 453.921L436.898 453.921C434.07 451.268 432.564 448.36 432.33 445.519C432.098 442.685 433.127 439.855 435.493 437.333C437.859 434.81 440.618 433.604 443.462 433.657C446.313 433.711 449.311 435.031 452.139 437.684Z" fill="#FFDC5B" stroke="#FFDC5B" stroke-width="0.901407" stroke-linejoin="round"/>
<path d="M411.749 456.742C411.764 456.758 411.778 456.776 411.791 456.794L436.481 492.396C437.366 493.668 437.744 494.94 437.525 496.153C437.305 497.365 436.505 498.423 435.232 499.304L419.797 510.008L419.797 510.008C416.282 512.445 412.674 513.398 409.335 512.867C405.992 512.336 402.984 510.329 400.653 506.97L400.653 506.97C397.203 501.995 397.253 496.288 400.675 491.551C398.008 492.411 395.375 492.488 392.948 491.809C390.043 490.997 387.466 489.113 385.491 486.265C383.026 482.715 382.155 478.985 382.872 475.471C383.587 471.96 385.875 468.728 389.606 466.143L389.606 466.143L404.883 455.554L411.749 456.742ZM411.749 456.742C410.877 455.505 409.834 454.727 408.641 454.511C407.428 454.291 406.157 454.669 404.884 455.554L411.749 456.742ZM407.359 500.242C407.346 500.224 407.333 500.208 407.319 500.192C406.115 498.433 405.706 496.666 405.99 495.062C406.278 493.441 407.287 491.924 409.035 490.712C409.035 490.712 409.035 490.712 409.035 490.712L418.938 483.843L426.776 495.149L416.823 502.051L416.823 502.051C415.075 503.263 413.318 503.667 411.715 503.36C410.11 503.053 408.595 502.023 407.359 500.242ZM404.456 483.871C402.522 485.17 400.613 485.616 398.887 485.304C397.161 484.991 395.553 483.909 394.243 482.023C392.917 480.112 392.452 478.175 392.754 476.415C393.056 474.656 394.136 473.012 396.019 471.705L405.814 464.911L414.249 477.079L404.456 483.871Z" fill="#FFDC5B" stroke="#FFDC5B" stroke-width="0.901407" stroke-linejoin="round"/>
<path d="M379.656 497.54C379.643 497.509 379.627 497.48 379.608 497.453C376.986 491.204 373.051 486.833 368.272 484.638C363.463 482.429 357.858 482.451 351.991 484.894C346.123 487.337 342.157 491.299 340.334 496.268C338.513 501.231 338.853 507.138 341.474 513.438L341.474 513.438L352.112 538.998L352.113 538.999C353.12 541.397 355.942 542.567 358.351 541.569L358.353 541.568C360.752 540.561 361.922 537.739 360.923 535.33L360.923 535.329L349.813 508.618C349.813 508.618 349.813 508.618 349.813 508.617C348.324 505.035 348.142 501.764 349.094 499.078C350.044 496.397 352.143 494.239 355.336 492.91C358.53 491.58 361.542 491.611 364.113 492.824C366.692 494.041 368.884 496.475 370.373 500.057L370.373 500.057L381.483 526.769L381.484 526.77C382.491 529.168 385.313 530.338 387.723 529.34L387.724 529.339C390.123 528.332 391.293 525.51 390.295 523.101L390.294 523.1L379.656 497.54Z" fill="#FFDC5B" stroke="#FFDC5B" stroke-width="0.901407" stroke-linejoin="round"/>
<path d="M311.473 526.567C311.476 526.538 311.476 526.509 311.473 526.48C310.67 518.029 307.715 511.36 303.194 506.962C298.667 502.558 292.603 500.469 285.671 501.127C278.665 501.79 274.068 504.975 271.276 508.529C268.502 512.061 267.496 515.977 267.7 518.139L267.7 518.139C267.937 520.651 270.009 522.447 272.482 522.216L272.483 522.216C274.05 522.068 275.059 521.172 275.849 519.997C276.24 519.414 276.585 518.753 276.923 518.067C277.037 517.834 277.15 517.6 277.263 517.365C277.49 516.895 277.719 516.42 277.97 515.937C278.717 514.496 279.608 513.082 280.955 511.963C282.294 510.85 284.112 510.006 286.75 509.755L286.75 509.755C291.04 509.346 294.506 510.804 297.055 513.808C299.619 516.83 301.281 521.451 301.843 527.394C302.405 533.329 301.531 538.189 299.47 541.651C297.419 545.096 294.172 547.194 289.88 547.599L289.879 547.599C287.289 547.846 285.404 547.37 283.941 546.551C282.469 545.726 281.388 544.535 280.435 543.289C280.129 542.887 279.843 542.491 279.56 542.099C279.399 541.875 279.239 541.654 279.077 541.433C278.637 540.835 278.19 540.262 277.709 539.773C276.735 538.783 275.585 538.112 274.005 538.262L274.005 538.262C272.7 538.386 271.695 539.018 271.055 539.956C270.421 540.885 270.165 542.087 270.285 543.343L311.473 526.567ZM311.473 526.567C312.256 534.979 310.606 542.055 307.004 547.207C303.384 552.384 297.821 555.577 290.893 556.235C277.762 557.483 270.774 548.488 270.285 543.343L311.473 526.567Z" fill="#FFDC5B" stroke="#FFDC5B" stroke-width="0.901407" stroke-linejoin="round"/>
<path d="M264.655 508.071L264.656 508.067C264.903 505.609 263.159 503.382 260.69 503.133L260.689 503.133C258.653 502.929 256.926 504.084 256.102 505.867C256.102 505.868 256.101 505.869 256.101 505.869L251.052 516.564L233.259 514.772L230.435 503.34L230.435 503.339C229.974 501.498 228.474 499.882 226.364 499.669C223.828 499.411 221.603 501.31 221.347 503.825L221.347 503.825L221.346 503.833C221.31 504.258 221.327 504.77 221.43 505.229L221.43 505.229L221.433 505.241L232.965 550.741C232.965 550.742 232.965 550.742 232.965 550.742C233.307 552.116 233.868 553.197 234.724 553.969C235.582 554.743 236.694 555.167 238.063 555.307C239.433 555.446 240.606 555.251 241.601 554.663C242.593 554.077 243.358 553.129 243.967 551.855C243.967 551.855 243.967 551.855 243.967 551.855L264.356 509.443L264.357 509.443L264.36 509.435C264.555 509.009 264.601 508.574 264.645 508.168C264.648 508.136 264.652 508.103 264.655 508.071ZM247.233 524.521L239.575 540.437L235.416 523.332L247.233 524.521Z" fill="#FFDC5B" stroke="#FFDC5B" stroke-width="0.901407" stroke-linejoin="round"/>
<path d="M209.616 500.259C209.614 500.279 209.61 500.299 209.604 500.319L198.862 539.124L210.54 542.359L209.616 500.259ZM209.616 500.259C210.261 497.772 208.759 495.151 206.274 494.462L206.274 494.462C203.756 493.766 201.097 495.274 200.4 497.784L200.4 497.784L189.659 536.588L177.981 533.353C177.981 533.353 177.981 533.353 177.981 533.353C175.73 532.724 173.243 534.079 172.595 536.401L172.595 536.402C171.972 538.671 173.415 541.11 175.669 541.729L208.221 550.734L208.221 550.734C210.463 551.353 212.965 550.016 213.589 547.744C214.237 545.42 212.798 542.98 210.541 542.359L209.616 500.259Z" fill="#FFDC5B" stroke="#FFDC5B" stroke-width="0.901407" stroke-linejoin="round"/>
<path d="M161.568 483.52C161.558 483.546 161.546 483.57 161.531 483.593L138.814 520.495C138.003 521.816 136.99 522.673 135.79 522.958C134.591 523.243 133.3 522.933 131.979 522.118L161.568 483.52ZM161.568 483.52C162.349 482.225 162.642 480.96 162.363 479.783C162.078 478.583 161.221 477.57 159.9 476.759L144.068 467.016L143.831 467.4L144.068 467.016C140.201 464.637 136.322 463.839 132.818 464.593C129.311 465.347 126.242 467.641 123.977 471.323C122.16 474.273 121.467 477.389 121.887 480.375C122.238 482.871 123.363 485.252 125.221 487.35C119.505 486.112 114.261 488.356 111.086 493.51L111.086 493.511C108.941 496.993 108.308 500.555 109.163 503.83C110.017 507.102 112.338 510.025 115.981 512.267C115.981 512.267 115.981 512.267 115.981 512.267L131.979 522.118L161.568 483.52ZM129.361 494.677L129.361 494.678L139.624 500.995L132.408 512.713L122.087 506.363C120.276 505.245 119.201 503.795 118.838 502.203C118.475 500.61 118.811 498.81 119.948 496.966C121.083 495.124 122.552 494.019 124.152 493.632C125.752 493.245 127.546 493.56 129.361 494.677ZM131.382 477.645C131.392 477.627 131.402 477.609 131.41 477.59C132.629 475.635 134.207 474.447 135.928 474.022C137.661 473.594 139.599 473.925 141.549 475.124L151.704 481.375L143.941 493.988L133.791 487.74C133.79 487.74 133.789 487.739 133.788 487.739C131.82 486.491 130.645 484.92 130.239 483.214C129.833 481.507 130.18 479.599 131.382 477.645Z" fill="#FFDC5B" stroke="#FFDC5B" stroke-width="0.901407" stroke-linejoin="round"/>
<path d="M126.438 460.683L126.441 460.679C128.119 458.873 128.083 456.044 126.261 454.351C124.76 452.952 122.691 452.838 120.955 453.76C120.954 453.76 120.954 453.76 120.953 453.76L110.468 459.237L97.3706 447.052L102.026 436.242L102.026 436.24C102.766 434.499 102.554 432.306 100.999 430.861C99.1272 429.12 96.208 429.293 94.4878 431.142L94.4851 431.144C94.1928 431.464 93.9006 431.883 93.7051 432.302L93.6984 432.317L75.3967 475.54C74.8438 476.84 74.6385 478.04 74.854 479.171C75.07 480.306 75.6983 481.314 76.7057 482.252L76.7064 482.253C77.7177 483.19 78.7702 483.744 79.9177 483.877C81.062 484.009 82.2426 483.716 83.4995 483.068L125.372 461.594L125.372 461.594L125.382 461.588C125.792 461.365 126.095 461.045 126.377 460.747C126.397 460.725 126.418 460.704 126.438 460.683ZM93.9165 455.179L102.615 463.264L86.8935 471.319L93.9165 455.179Z" fill="#FFDC5B" stroke="#FFDC5B" stroke-width="0.901407" stroke-linejoin="round"/>
<path d="M90.6902 426.954C90.6668 426.983 90.6396 427.009 90.6091 427.032L55.2982 453.262L90.6902 426.954ZM90.6902 426.954C91.8852 426.043 92.6193 424.978 92.7944 423.785C92.9735 422.565 92.5543 421.306 91.6301 420.063C91.63 420.063 91.63 420.063 91.63 420.063L76.4847 399.681L76.4839 399.68C75.091 397.817 72.3011 397.337 70.4107 398.743C68.476 400.179 68.1088 402.989 69.5058 404.867L90.6902 426.954ZM69.506 404.867L81.9218 421.581L49.6067 445.596C49.6067 445.596 49.6066 445.596 49.6065 445.596C47.5102 447.153 47.0614 450.185 48.6187 452.275C50.1751 454.371 53.208 454.82 55.2976 453.263L69.506 404.867Z" fill="#FFDC5B" stroke="#FFDC5B" stroke-width="0.901407" stroke-linejoin="round"/>
<path d="M68.0662 393.21L68.0666 393.209C70.3465 391.946 71.197 389.004 69.9325 386.723C68.6689 384.443 65.7272 383.592 63.4456 384.857L24.3812 406.456L24.3808 406.456C22.1009 407.72 21.2504 410.662 22.5149 412.943C23.7784 415.223 26.7199 416.073 29.0014 414.809C29.0015 414.809 29.0017 414.809 29.0018 414.809L68.0662 393.21Z" fill="#FFDC5B" stroke="#FFDC5B" stroke-width="0.901407" stroke-linejoin="round"/>
</svg>
