<svg width="96" height="96" viewBox="0 0 96 96" fill="none" xmlns="http://www.w3.org/2000/svg">
<g clip-path="url(#clip0_1048_21197)">
<path fill-rule="evenodd" clip-rule="evenodd" d="M48.1007 0.503906C49.5072 0.503906 50.8471 1.0591 51.839 2.05104C52.8309 3.04298 53.3861 4.39024 53.3861 5.78932V6.79607C60.0336 9.46098 63.9644 17.0042 63.9644 24.3031C63.9644 33.3638 57.9017 42.8168 48.1007 42.8168C38.2998 42.8168 32.2371 33.3638 32.2371 24.3031C32.2371 17.0042 36.1678 9.46098 42.8153 6.79607V5.78932C42.8153 4.39024 43.3705 3.04298 44.3624 2.05104C45.3544 1.0591 46.7016 0.503906 48.1007 0.503906ZM83.0111 19.2397C80.9902 19.3434 79.0137 19.8986 77.2297 20.8609C74.017 22.5783 71.3299 25.5023 69.6643 29.0925C67.9914 32.6754 67.4732 36.6061 68.2282 40.1741C68.9833 43.7422 71.1078 47.2732 74.9423 49.0572C78.7695 50.8486 82.8483 50.212 86.0684 48.4946C89.2811 46.7772 91.9608 43.8532 93.6338 40.2704C95.3067 36.6875 95.8249 32.7494 95.0698 29.1814C94.6627 27.1975 93.8188 25.3246 92.5974 23.7109C93.1452 22.445 93.1822 21.0163 92.6936 19.7283C92.2051 18.4403 91.2353 17.3891 89.9843 16.8043C88.7333 16.2195 87.3046 16.1529 86.0017 16.6044C84.6989 17.056 83.6255 18.0035 83.0111 19.2397ZM3.61145 23.7331C2.35302 25.369 1.54614 27.2789 1.139 29.2036C0.391345 32.7716 0.909523 36.7023 2.5751 40.2852C4.24807 43.868 6.92779 46.792 10.1405 48.5168C13.3532 50.2342 17.432 50.8708 21.2665 49.0794C25.101 47.288 27.233 43.757 27.9806 40.1963C28.7283 36.6283 28.2101 32.6976 26.5445 29.1073C24.8716 25.5245 22.1918 22.6005 18.9791 20.8831C17.1951 19.9208 15.2186 19.3656 13.1903 19.2619C12.5981 17.9887 11.5248 17.0042 10.2071 16.523C8.88946 16.0418 7.43116 16.1085 6.16533 16.7007C4.89209 17.2929 3.90755 18.3662 3.42639 19.6839C2.94522 21.0015 3.01185 22.4598 3.60405 23.7257L3.61145 23.7331ZM22.4583 56.667C29.8535 51.1077 38.855 48.1023 48.1007 48.1023C58.0942 48.1023 67.1401 51.6259 73.7505 56.667C80.1685 61.5601 85.1282 68.5925 85.1282 76.0172C85.1282 83.442 78.8657 88.3647 72.7068 91.1258C66.1259 94.072 57.4131 95.7006 48.1081 95.7006C38.8031 95.7006 30.0977 94.072 23.5095 91.1258C17.3506 88.3647 11.088 83.4568 11.088 76.0172C11.088 68.5777 16.0477 61.5601 22.4657 56.6596L22.4583 56.667Z" fill="#FFD331"/>
</g>
<defs>
<clipPath id="clip0_1048_21197">
<rect width="94.5971" height="95.2041" fill="white" transform="translate(0.806152 0.503906)"/>
</clipPath>
</defs>
</svg>
