<svg width="54" height="68" viewBox="0 0 54 68" fill="none" xmlns="http://www.w3.org/2000/svg">
<g clip-path="url(#clip0_63_661)">
<path d="M21.7312 50.3697C21.7486 49.9872 22.3799 49.8343 22.5637 50.168C23.4447 51.729 24.9397 54.0236 26.6394 55.0666C28.3355 56.1062 31.055 56.4052 32.8413 56.4816C33.2229 56.499 33.3755 57.1283 33.0425 57.316C31.4851 58.1956 29.1958 59.6976 28.1552 61.3976C27.1146 63.0977 26.8197 65.8269 26.7434 67.6174C26.7261 67.9998 26.0948 68.1493 25.9109 67.8156C25.0299 66.2545 23.5349 63.9634 21.8387 62.9204C20.1426 61.8774 17.4197 61.5819 15.6333 61.5054C15.2518 61.488 15.1026 60.8553 15.4356 60.671C16.993 59.7914 19.2789 58.2895 20.3195 56.5859C21.3601 54.8859 21.6549 52.1567 21.7312 50.3697ZM50.1742 46.9C50.1464 46.5175 49.4804 46.3576 49.2827 46.6844C48.6861 47.6648 47.8259 48.8469 46.8685 49.4379C45.9147 50.029 44.4682 50.2584 43.3271 50.3453C42.9455 50.3731 42.7894 51.0407 43.112 51.2388C44.0902 51.8368 45.273 52.6956 45.8592 53.6586C46.4488 54.6147 46.6812 56.0644 46.7645 57.2083C46.7957 57.5907 47.4582 57.7471 47.6559 57.4203C48.2525 56.4434 49.1093 55.2579 50.0701 54.6738C51.0275 54.0827 52.467 53.8498 53.6081 53.7629C53.9897 53.7316 54.1493 53.0676 53.8232 52.8694C52.8416 52.2714 51.6622 51.4127 51.076 50.4496C50.4864 49.4936 50.2574 48.0473 50.1672 46.9034L50.1742 46.9ZM37.0592 6.94966L36.2198 5.88928C32.9766 1.77986 31.3567 -0.271366 29.4698 0.0276272C27.5828 0.333573 26.681 2.79157 24.8738 7.70757L24.409 8.97655C23.8922 10.3742 23.6355 11.073 23.1499 11.5875C22.6539 12.1021 21.9879 12.3698 20.6421 12.9052L19.4211 13.3954L18.5609 13.7431C14.4054 15.4084 12.3173 16.3575 12.0502 18.1967C11.7658 20.1575 13.7464 21.8367 17.7076 25.1917L18.7308 26.0609C19.8547 27.0169 20.4201 27.4932 20.7392 28.1434C21.0652 28.7935 21.1103 29.541 21.204 31.0394L21.2872 32.4023C21.6098 37.6764 21.7728 40.3152 23.4829 41.2226C25.1929 42.13 27.3192 40.7115 31.5718 37.8711L32.6714 37.134C33.8819 36.324 34.4855 35.9207 35.1757 35.8129C35.8694 35.7016 36.5666 35.8963 37.9645 36.2857L39.2375 36.6403C44.1595 38.0067 46.6223 38.6916 47.9612 37.2939C49.3036 35.8963 48.641 33.3375 47.3021 28.2268L46.9587 26.9057C46.5772 25.4524 46.3899 24.7258 46.4939 24.0096C46.598 23.29 46.9865 22.6607 47.7565 21.3987L48.4607 20.2548C51.1836 15.8256 52.5433 13.6144 51.6588 11.8378C50.7777 10.0682 48.2421 9.90482 43.164 9.58844L41.8529 9.505C40.4099 9.41461 39.6884 9.36941 39.0641 9.03566C38.4397 8.70189 37.9784 8.12129 37.0557 6.95314L37.0592 6.94966ZM16.7398 39.3035C9.34118 42.9261 3.18086 48.6661 0.860326 55.5221C-1.74463 39.1887 1.8697 28.6405 7.66236 22.0801C8.16184 23.1022 8.81048 23.9505 9.39321 24.6146C10.6038 25.9879 12.3416 27.462 14.1071 28.9569L15.3766 30.0312L15.9663 30.5353C15.9837 30.7578 16.001 31.0221 16.0183 31.3593L16.1224 33.042C16.2611 35.3157 16.3999 37.5338 16.7398 39.3069V39.3035Z" fill="#FFD331"/>
</g>
<defs>
<clipPath id="clip0_63_661">
<rect width="54" height="68" fill="white"/>
</clipPath>
</defs>
</svg>
